<svg width="16" height="16" xmlns="http://www.w3.org/2000/svg"><path d="M14.654 5.254c-.031-.708-.146-1.195-.31-1.618a3.258 3.258 0 0 0-.77-1.182 3.281 3.281 0 0 0-1.18-.768c-.425-.164-.91-.28-1.618-.31-.714-.034-.94-.042-2.75-.042s-2.037.008-2.749.04c-.708.03-1.195.145-1.617.309-.448.17-.85.43-1.183.771a3.283 3.283 0 0 0-.768 1.18c-.164.425-.279.909-.31 1.617-.034.714-.042.94-.042 2.751 0 1.81.008 2.037.04 2.748.03.708.145 1.195.31 1.617.169.448.432.85.77 1.183.334.338.738.602 1.18.768.425.164.91.279 1.618.31.71.031.938.04 2.748.04 1.81 0 2.037-.008 2.748-.04.708-.031 1.195-.146 1.617-.31a3.41 3.41 0 0 0 1.951-1.95c.164-.425.279-.91.31-1.618.031-.711.04-.938.04-2.748 0-1.81-.004-2.037-.035-2.748Zm-1.2 5.444c-.03.651-.139 1.003-.23 1.237a2.211 2.211 0 0 1-1.266 1.266c-.234.091-.588.2-1.237.23-.703.03-.914.038-2.693.038s-1.993-.008-2.693-.039c-.651-.028-1.003-.138-1.237-.23a2.051 2.051 0 0 1-.766-.497 2.073 2.073 0 0 1-.498-.765c-.09-.235-.2-.589-.229-1.238-.031-.703-.039-.914-.039-2.693s.008-1.992.04-2.693c.028-.651.137-1.003.228-1.237.107-.29.276-.552.5-.766a2.07 2.07 0 0 1 .766-.498c.235-.09.589-.2 1.237-.229.704-.031.915-.039 2.694-.039 1.781 0 1.992.008 2.693.04.651.028 1.003.137 1.237.228.29.107.552.276.766.498.221.216.39.477.497.766.091.234.2.588.23 1.237.03.703.039.914.039 2.693 0 1.78-.008 1.988-.04 2.69Z"/><path d="M8.025 4.577a3.426 3.426 0 1 0 .002 6.852 3.426 3.426 0 0 0-.002-6.852Zm0 5.647a2.222 2.222 0 1 1 .001-4.445 2.222 2.222 0 0 1 0 4.445Zm4.361-5.783a.8.8 0 1 1-1.6 0 .8.8 0 0 1 1.6 0Z"/></svg>