<svg width="16" height="16" xmlns="http://www.w3.org/2000/svg"><path d="M15 3.849a5.935 5.935 0 0 1-1.65.433 2.786 2.786 0 0 0 1.263-1.52 5.948 5.948 0 0 1-1.825.667 2.924 2.924 0 0 0-2.096-.868C9.106 2.56 7.82 3.79 7.82 5.31c0 .215.026.425.075.626-2.387-.114-4.503-1.21-5.92-2.873a2.641 2.641 0 0 0-.388 1.382c0 .954.507 1.796 1.277 2.289a2.97 2.97 0 0 1-1.3-.345v.034c0 1.332.99 2.444 2.303 2.697a3.03 3.03 0 0 1-.757.096c-.185 0-.365-.018-.54-.051.365 1.093 1.425 1.888 2.682 1.91a5.926 5.926 0 0 1-3.567 1.175A6.37 6.37 0 0 1 1 12.212a8.382 8.382 0 0 0 4.402 1.237c5.283 0 8.171-4.19 8.171-7.823l-.01-.356A5.608 5.608 0 0 0 15 3.849Z"/></svg>