<svg width="16" height="17" fill="none" xmlns="http://www.w3.org/2000/svg"><path fill-rule="evenodd" clip-rule="evenodd" d="M14.615 7.546a5.166 5.166 0 0 1-.653 1.858c.025.142.038.286.038.43 0 .502-.146.982-.415 1.419-.135.218-.17.473-.183.642a4.25 4.25 0 0 0 .004.607c.016.228.044.468.076.693a13.78 13.78 0 0 0-.812-.212 5.819 5.819 0 0 0-.66-.115c-.181-.019-.443-.034-.676.042a5.425 5.425 0 0 1-1.668.258 5.365 5.365 0 0 1-1.92-.343 8.824 8.824 0 0 1-2.712-.291C6.085 13.748 7.818 14.5 9.666 14.5a6.76 6.76 0 0 0 2.054-.315h.006c.016 0 .062 0 .147.008.134.014.306.044.504.09.395.088.839.22 1.184.33a1.024 1.024 0 0 0 1.313-1.152c-.056-.32-.115-.711-.138-1.05a2.96 2.96 0 0 1-.004-.413.783.783 0 0 1 .01-.083 4.009 4.009 0 0 0 .591-2.082c0-.849-.264-1.624-.718-2.288Z" fill="#787A80"/><path fill-rule="evenodd" clip-rule="evenodd" d="M3.731 4.3c-.899.687-1.398 1.589-1.398 2.534 0 .471.123.925.353 1.347.088.161.113.327.121.44.01.122.005.248-.005.365a5.847 5.847 0 0 1-.134.766 14.5 14.5 0 0 1-.255.943c.352-.128.737-.259 1.102-.365.295-.087.593-.161.858-.203.228-.036.56-.072.845.027a6.48 6.48 0 0 0 2.115.347c1.432 0 2.703-.445 3.602-1.132.899-.688 1.398-1.59 1.398-2.535 0-.945-.5-1.847-1.398-2.535-.9-.687-2.17-1.132-3.602-1.132-1.431 0-2.703.445-3.602 1.132Zm-.81-1.06c1.152-.88 2.714-1.406 4.412-1.406s3.26.526 4.412 1.406c1.152.881 1.921 2.146 1.921 3.594s-.769 2.713-1.921 3.594c-1.152.88-2.714 1.406-4.412 1.406-.895 0-1.75-.146-2.527-.412 0 .003-.064-.004-.225.022-.186.03-.423.087-.693.165a20.59 20.59 0 0 0-1.599.558c-.796.31-1.606-.455-1.338-1.27.142-.43.31-.976.419-1.447.055-.237.09-.436.104-.584a1.16 1.16 0 0 0 .005-.114A4.117 4.117 0 0 1 1 6.834c0-1.448.77-2.713 1.922-3.594Z" fill="#787A80"/></svg>