<svg width="162" height="48" fill="none" xmlns="http://www.w3.org/2000/svg"><path d="M156.322 48H5.678A5.676 5.676 0 0 1 0 42.324V5.676A5.676 5.676 0 0 1 5.678 0h150.644A5.675 5.675 0 0 1 162 5.676v36.648A5.675 5.675 0 0 1 156.322 48Z" fill="#424551"/><path d="M160.938 42.324a4.58 4.58 0 0 1-4.59 4.587H5.705c-2.54 0-4.615-2.047-4.615-4.587V5.676a4.625 4.625 0 0 1 4.615-4.614h150.643a4.609 4.609 0 0 1 4.616 4.614l-.026 36.648Z" fill="#424551"/><path d="M36.166 23.741c-.026-3.861 3.163-5.753 3.318-5.831-1.814-2.644-4.614-3.007-5.625-3.033-2.36-.259-4.64 1.426-5.86 1.426-1.218 0-3.084-1.4-5.08-1.348-2.567.052-4.978 1.53-6.3 3.836-2.723 4.717-.7 11.637 1.918 15.421 1.296 1.866 2.826 3.94 4.822 3.862 1.944-.078 2.67-1.244 5.03-1.244 2.333 0 3.007 1.244 5.055 1.192 2.1-.026 3.422-1.866 4.666-3.758 1.504-2.125 2.1-4.25 2.126-4.354 0 0-4.018-1.53-4.07-6.169Zm-3.837-11.378c1.037-1.322 1.763-3.084 1.556-4.898-1.53.078-3.422 1.062-4.511 2.332-.96 1.14-1.841 2.981-1.608 4.717 1.711.13 3.474-.855 4.563-2.15Z" fill="#fff"/><path d="M156.322 0h-80.69l31.607 48h49.083A5.675 5.675 0 0 0 162 42.324V5.676A5.675 5.675 0 0 0 156.322 0Z" fill="url(#a)"/><path d="M64.432 37.815h-2.723l-1.503-4.691H55.02l-1.426 4.69h-2.645l5.134-15.965h3.19l5.159 15.966Zm-4.667-6.661-1.348-4.173c-.156-.415-.415-1.426-.804-3.007h-.052c-.156.674-.415 1.685-.752 3.007l-1.322 4.173h4.278Zm17.864.751c0 1.97-.544 3.5-1.607 4.64-.96 1.01-2.126 1.529-3.552 1.529-1.53 0-2.62-.544-3.293-1.633v6.039h-2.541V30.065a62.99 62.99 0 0 0-.104-3.784h2.256l.156 1.814h.051c.856-1.373 2.152-2.073 3.89-2.073 1.348 0 2.489.544 3.396 1.607.908 1.114 1.348 2.54 1.348 4.276Zm-2.592.104c0-1.114-.26-2.047-.752-2.773-.545-.752-1.297-1.14-2.23-1.14-.622 0-1.193.207-1.711.621-.519.415-.856.96-1.012 1.66-.077.258-.103.518-.13.777v1.918c0 .829.26 1.555.779 2.125.518.57 1.192.855 1.996.855.96 0 1.711-.363 2.256-1.114.544-.726.804-1.71.804-2.929Zm15.868-.104c0 1.97-.545 3.5-1.608 4.64-.96 1.01-2.126 1.529-3.552 1.529-1.53 0-2.619-.544-3.293-1.633v6.039h-2.567V30.065a62.99 62.99 0 0 0-.104-3.784h2.256l.156 1.814h.052c.855-1.373 2.152-2.073 3.889-2.073 1.348 0 2.489.544 3.397 1.607.907 1.114 1.374 2.54 1.374 4.276Zm-2.619.104c0-1.114-.26-2.047-.752-2.773-.544-.752-1.296-1.14-2.23-1.14-.622 0-1.192.207-1.711.621-.519.415-.856.96-1.011 1.66-.078.31-.13.57-.13.777v1.918c0 .829.26 1.555.778 2.125.519.57 1.193.855 1.996.855.96 0 1.712-.363 2.256-1.114.545-.726.804-1.71.804-2.929Zm17.424 1.322c0 1.348-.467 2.462-1.426 3.317-1.037.933-2.489 1.4-4.356 1.4-1.712 0-3.086-.337-4.149-.985l.597-2.125c1.114.674 2.36.985 3.707.985.96 0 1.712-.208 2.256-.648.545-.44.804-1.011.804-1.737 0-.648-.233-1.192-.674-1.633-.441-.44-1.167-.855-2.204-1.244-2.8-1.036-4.2-2.566-4.2-4.587 0-1.322.492-2.385 1.477-3.214.986-.83 2.308-1.244 3.916-1.244 1.452 0 2.67.26 3.629.752l-.648 2.073c-.907-.492-1.918-.726-3.059-.726-.908 0-1.608.233-2.126.674-.415.389-.649.881-.649 1.452 0 .622.234 1.166.726 1.555.415.388 1.193.777 2.334 1.244 1.374.544 2.385 1.192 3.034 1.944.7.725 1.011 1.632 1.011 2.747Zm8.478-5.106h-2.826v5.598c0 1.426.493 2.126 1.504 2.126.467 0 .83-.026 1.141-.13l.078 1.944c-.493.181-1.167.285-1.997.285-1.011 0-1.789-.311-2.359-.933-.571-.622-.856-1.659-.856-3.11v-5.806h-1.685v-1.918h1.685v-2.1l2.515-.75v2.876h2.826l-.026 1.918Zm12.705 3.732c0 1.763-.518 3.214-1.53 4.354-1.063 1.167-2.463 1.763-4.226 1.763-1.685 0-3.034-.57-4.045-1.685-1.011-1.114-1.504-2.54-1.504-4.25 0-1.789.519-3.24 1.556-4.38 1.037-1.14 2.437-1.711 4.175-1.711 1.685 0 3.059.57 4.07 1.685 1.012 1.088 1.504 2.514 1.504 4.224Zm-2.644.052c0-1.063-.234-1.97-.675-2.721-.544-.907-1.296-1.374-2.307-1.374-1.037 0-1.815.466-2.36 1.374-.466.751-.674 1.684-.674 2.773 0 1.063.233 1.97.674 2.721.545.907 1.323 1.374 2.334 1.374.985 0 1.737-.467 2.307-1.4.467-.777.701-1.684.701-2.747Zm10.967-3.473a4.22 4.22 0 0 0-.804-.078c-.907 0-1.607.337-2.074 1.011-.415.596-.648 1.348-.648 2.28v6.04h-2.567v-7.88c0-1.217-.026-2.41-.078-3.628h2.23l.104 2.203h.078c.259-.751.7-1.374 1.27-1.814.545-.389 1.193-.622 1.841-.622.233 0 .441.026.648.052v2.436Zm11.46 2.98c0 .39-.025.778-.103 1.167h-7.675c.026 1.14.389 2.022 1.115 2.618.648.544 1.478.803 2.515.803 1.141 0 2.178-.181 3.111-.544l.389 1.762c-1.089.467-2.385.7-3.863.7-1.789 0-3.189-.518-4.2-1.581-1.012-1.063-1.53-2.462-1.53-4.225 0-1.736.467-3.188 1.426-4.328.985-1.244 2.333-1.84 4.019-1.84 1.659 0 2.93.622 3.759 1.84.7.985 1.037 2.177 1.037 3.629Zm-2.437-.673c.026-.752-.155-1.426-.492-1.97-.441-.726-1.115-1.063-2.049-1.063-.829 0-1.53.337-2.048 1.037-.415.544-.674 1.218-.752 1.996h5.341ZM54.294 16.199c-.7 0-1.322-.026-1.84-.104V8.372a15.387 15.387 0 0 1 2.177-.156c2.93 0 4.278 1.452 4.278 3.81 0 2.696-1.607 4.173-4.615 4.173Zm.415-6.998a5.73 5.73 0 0 0-1.011.078v5.857c.155.026.44.026.855.026 1.919 0 3.008-1.088 3.008-3.136 0-1.814-.985-2.825-2.852-2.825Zm8.4 7.05c-1.659 0-2.722-1.244-2.722-2.903 0-1.736 1.09-2.98 2.826-2.98 1.634 0 2.723 1.166 2.723 2.902 0 1.737-1.141 2.98-2.826 2.98Zm.052-4.976c-.907 0-1.503.855-1.503 2.047 0 1.167.596 2.022 1.477 2.022.882 0 1.478-.907 1.478-2.048.026-1.166-.57-2.021-1.452-2.021Zm12.213-.804-1.763 5.65h-1.167l-.726-2.462a21.206 21.206 0 0 1-.467-1.84h-.026c-.104.622-.26 1.244-.467 1.84l-.777 2.462h-1.167l-1.66-5.65h1.297l.648 2.696c.156.648.285 1.244.389 1.814h.026c.104-.467.233-1.063.467-1.814l.803-2.696h1.037l.778 2.644c.182.648.337 1.27.467 1.866h.026c.078-.57.207-1.192.389-1.866l.7-2.644h1.193Zm6.508 5.65h-1.245v-3.24c0-1.01-.389-1.503-1.14-1.503-.753 0-1.271.648-1.271 1.374v3.37h-1.27v-4.044c0-.492 0-1.037-.053-1.607h1.115l.052.881h.026c.337-.596 1.037-.984 1.79-.984 1.192 0 1.97.907 1.97 2.384l.026 3.37Zm3.474 0h-1.27V7.854h1.27v8.267Zm4.59.13c-1.66 0-2.723-1.244-2.723-2.903 0-1.736 1.089-2.98 2.826-2.98 1.634 0 2.723 1.166 2.723 2.902 0 1.737-1.141 2.98-2.827 2.98Zm.051-4.976c-.907 0-1.504.855-1.504 2.047 0 1.167.597 2.022 1.478 2.022.882 0 1.478-.907 1.478-2.048 0-1.166-.57-2.021-1.452-2.021Zm7.727 4.846-.104-.648h-.026c-.389.519-.933.778-1.66.778-1.01 0-1.736-.7-1.736-1.659 0-1.4 1.218-2.125 3.318-2.125v-.104c0-.751-.389-1.114-1.166-1.114-.57 0-1.037.13-1.478.415l-.26-.83c.519-.337 1.167-.492 1.945-.492 1.478 0 2.23.777 2.23 2.332v2.074c0 .57.026 1.01.078 1.347l-1.141.026Zm-.182-2.825c-1.4 0-2.1.337-2.1 1.14 0 .597.363.882.856.882.648 0 1.244-.493 1.244-1.14v-.882Zm7.338 2.825-.052-.907h-.026c-.363.674-.959 1.037-1.815 1.037-1.374 0-2.385-1.192-2.385-2.877 0-1.762 1.037-3.006 2.489-3.006.752 0 1.296.259 1.608.777h.025V7.854h1.271v6.738c0 .544.026 1.063.052 1.53h-1.167Zm-.181-3.317c0-.804-.519-1.478-1.323-1.478-.933 0-1.504.83-1.504 1.996 0 1.14.597 1.918 1.478 1.918.804 0 1.349-.7 1.349-1.503v-.933Zm9.256 3.447c-1.659 0-2.723-1.244-2.723-2.903 0-1.736 1.089-2.98 2.827-2.98 1.633 0 2.722 1.166 2.722 2.902 0 1.737-1.141 2.98-2.826 2.98Zm.052-4.976c-.908 0-1.478.855-1.478 2.047 0 1.167.596 2.022 1.478 2.022.881 0 1.478-.907 1.478-2.048-.026-1.166-.597-2.021-1.478-2.021Zm9.541 4.846h-1.27v-3.24c0-1.01-.389-1.503-1.141-1.503s-1.244.648-1.244 1.374v3.37h-1.271v-4.044c0-.492 0-1.037-.052-1.607h1.115l.052.881h.026c.337-.596 1.037-.984 1.789-.984 1.193 0 1.97.907 1.97 2.384v3.37h.026Zm8.453-4.717h-1.374v2.748c0 .7.233 1.036.726 1.036.233 0 .415-.026.57-.052l.026.96c-.233.103-.57.129-.985.129-.985 0-1.582-.544-1.582-1.97v-2.85h-.829v-.934h.829V9.435l1.245-.363v1.4h1.374v.932Zm6.664 4.717h-1.245v-3.213c0-1.011-.389-1.53-1.141-1.53-.648 0-1.27.441-1.27 1.348v3.421h-1.245V7.854h1.245v3.395h.026c.389-.622.959-.933 1.711-.933 1.193 0 1.919.933 1.919 2.41v3.395Zm6.819-2.514h-3.786c.026 1.063.726 1.685 1.789 1.685.571 0 1.063-.104 1.53-.26l.207.882c-.544.233-1.166.337-1.892.337-1.763 0-2.826-1.115-2.826-2.851s1.063-3.032 2.67-3.032c1.452 0 2.36 1.062 2.36 2.695 0 .155 0 .337-.052.544Zm-1.141-.907c0-.881-.441-1.503-1.245-1.503-.726 0-1.296.622-1.374 1.503h2.619Z" fill="#fff"/><defs><linearGradient id="a" x1="118.823" y1="48.113" x2="118.823" y2="-644.442" gradientUnits="userSpaceOnUse"><stop stop-color="#1A1A1A" stop-opacity=".1"/><stop offset=".123" stop-color="#212121" stop-opacity=".151"/><stop offset=".308" stop-color="#353535" stop-opacity=".227"/><stop offset=".532" stop-color="#575757" stop-opacity=".318"/><stop offset=".783" stop-color="#858585" stop-opacity=".421"/><stop offset="1" stop-color="#B3B3B3" stop-opacity=".51"/></linearGradient></defs></svg>