<svg width="162" height="48" fill="none" xmlns="http://www.w3.org/2000/svg"><g clip-path="url(#a)"><path d="M156 47.991H6c-3.36 0-6-2.64-6-5.998V6.006C0 2.646 2.64.008 6 .008h150c3.36 0 6 2.639 6 5.998v35.987c0 3.359-2.64 5.998-6 5.998Z" fill="#424551"/><path d="M156 .967c2.76 0 5.04 2.28 5.04 5.039v35.987c0 2.76-2.28 5.038-5.04 5.038H6c-2.76 0-5.04-2.279-5.04-5.038V6.006C.96 3.246 3.24.967 6 .967h150Zm0-.96H6c-3.36 0-6 2.76-6 5.999v35.987c0 3.359 2.64 5.998 6 5.998h150c3.36 0 6-2.64 6-5.998V6.006c0-3.24-2.64-5.998-6-5.998Z" fill="#424551"/><path d="M56.88 12.244c0 .96-.24 1.8-.84 2.399-.72.72-1.56 1.08-2.64 1.08s-1.92-.36-2.64-1.08c-.72-.72-1.08-1.56-1.08-2.64 0-1.079.36-1.918 1.08-2.638.72-.72 1.56-1.08 2.64-1.08.48 0 .96.12 1.44.36s.84.48 1.08.84l-.6.6c-.48-.6-1.08-.84-1.92-.84-.72 0-1.44.24-1.92.84-.6.48-.84 1.2-.84 2.039 0 .84.24 1.56.84 2.04.6.479 1.2.839 1.92.839.84 0 1.44-.24 2.04-.84.36-.36.6-.84.6-1.44H53.4v-.96h3.48v.48Zm5.52-3h-3.24v2.28h3v.84h-3v2.279h3.24v.96h-4.2V8.405h4.2v.84Zm3.96 6.359h-.96V9.245h-2.04v-.84h5.04v.84h-2.04v6.358Zm5.52 0V8.405h.96v7.198h-.96Zm5.04 0h-.96V9.245h-2.04v-.84h4.92v.84H76.8v6.358h.12Zm11.4-.96c-.72.72-1.56 1.08-2.64 1.08s-1.92-.36-2.64-1.08c-.72-.72-1.08-1.56-1.08-2.64 0-1.079.36-1.918 1.08-2.638.72-.72 1.56-1.08 2.64-1.08s1.92.36 2.64 1.08c.72.72 1.08 1.56 1.08 2.639 0 1.08-.36 1.92-1.08 2.639Zm-4.56-.6c.48.48 1.2.84 1.92.84s1.44-.24 1.92-.84c.48-.48.84-1.2.84-2.04 0-.839-.24-1.559-.84-2.038-.48-.48-1.2-.84-1.92-.84s-1.44.24-1.92.84c-.48.48-.84 1.2-.84 2.039 0 .84.24 1.56.84 2.04Zm6.96 1.56V8.405h1.08l3.48 5.638V8.405h.96v7.198h-.96l-3.72-5.878v5.878h-.84Zm-9 10.557c-2.88 0-5.16 2.159-5.16 5.158a5.12 5.12 0 0 0 5.16 5.158c2.88 0 5.16-2.16 5.16-5.158 0-3.12-2.28-5.159-5.16-5.159Zm0 8.157c-1.56 0-2.88-1.32-2.88-3.12 0-1.799 1.32-3.118 2.88-3.118 1.56 0 2.88 1.2 2.88 3.119 0 1.8-1.32 3.119-2.88 3.119ZM70.56 26.16c-2.88 0-5.16 2.159-5.16 5.158a5.12 5.12 0 0 0 5.16 5.158c2.88 0 5.16-2.16 5.16-5.158 0-3.12-2.28-5.159-5.16-5.159Zm0 8.157c-1.56 0-2.88-1.32-2.88-3.12 0-1.799 1.32-3.118 2.88-3.118 1.56 0 2.88 1.2 2.88 3.119 0 1.8-1.32 3.119-2.88 3.119Zm-13.32-6.598v2.16h5.16c-.12 1.199-.6 2.159-1.2 2.758-.72.72-1.92 1.56-3.96 1.56-3.24 0-5.64-2.52-5.64-5.758 0-3.24 2.52-5.758 5.64-5.758 1.68 0 3 .72 3.96 1.56l1.56-1.56c-1.32-1.2-3-2.16-5.4-2.16-4.32 0-8.04 3.6-8.04 7.918s3.72 7.917 8.04 7.917c2.4 0 4.08-.72 5.52-2.28 1.44-1.439 1.92-3.478 1.92-5.038 0-.48 0-.96-.12-1.319h-7.44Zm54.48 1.68c-.48-1.2-1.68-3.24-4.32-3.24-2.64 0-4.8 2.04-4.8 5.159 0 2.879 2.16 5.158 5.04 5.158 2.28 0 3.72-1.44 4.2-2.28l-1.68-1.199c-.6.84-1.32 1.44-2.52 1.44s-1.92-.48-2.52-1.56l6.84-2.879-.24-.6Zm-6.96 1.679c0-1.92 1.56-3 2.64-3 .84 0 1.68.48 1.92 1.08l-4.56 1.92Zm-5.64 4.918h2.28V21.001h-2.28v14.995Zm-3.6-8.757c-.6-.6-1.56-1.2-2.76-1.2-2.52 0-4.92 2.28-4.92 5.159s2.28 5.038 4.92 5.038c1.2 0 2.16-.6 2.64-1.2h.12v.72c0 1.92-1.08 3-2.76 3-1.32 0-2.28-.96-2.52-1.8l-1.92.84c.6 1.319 2.04 2.998 4.56 2.998 2.64 0 4.8-1.56 4.8-5.278V26.4h-2.16v.84Zm-2.64 7.078c-1.56 0-2.88-1.32-2.88-3.12 0-1.799 1.32-3.118 2.88-3.118 1.56 0 2.76 1.32 2.76 3.119 0 1.8-1.2 3.119-2.76 3.119ZM122.16 21h-5.4v14.995h2.28v-5.638h3.12c2.52 0 4.92-1.8 4.92-4.678 0-2.88-2.4-4.679-4.92-4.679Zm.12 7.198h-3.24V23.04h3.24c1.68 0 2.64 1.44 2.64 2.519-.12 1.32-1.08 2.639-2.64 2.639Zm13.8-2.16c-1.68 0-3.36.72-3.96 2.28l2.04.84c.48-.84 1.2-1.08 2.04-1.08 1.2 0 2.28.72 2.4 1.92v.12c-.36-.24-1.32-.6-2.28-.6-2.16 0-4.32 1.199-4.32 3.358 0 2.04 1.8 3.359 3.72 3.359 1.56 0 2.28-.72 2.88-1.44h.12v1.2h2.16v-5.758c-.24-2.639-2.28-4.198-4.8-4.198Zm-.24 8.278c-.72 0-1.8-.36-1.8-1.32 0-1.2 1.32-1.56 2.4-1.56.96 0 1.44.24 2.04.48-.24 1.44-1.44 2.4-2.64 2.4Zm12.6-7.918-2.52 6.478h-.12l-2.64-6.478h-2.4l3.96 9.117-2.28 5.038h2.28l6.12-14.155h-2.4Zm-20.16 9.597h2.28V21.001h-2.28v14.995Z" fill="#fff"/><path d="M12.48 9.006c-.36.36-.48.96-.48 1.68v26.51c0 .72.24 1.32.6 1.68l.12.12L27.6 24.12v-.24L12.48 9.006Z" fill="url(#b)"/><path d="m32.4 29.157-4.92-4.918v-.36l4.92-4.918.12.12 5.88 3.359c1.68.96 1.68 2.519 0 3.479l-6 3.238Z" fill="url(#c)"/><path d="M32.52 29.038 27.48 24l-15 14.995c.6.6 1.44.6 2.52.12l17.52-10.077Z" fill="url(#d)"/><path d="M32.52 18.962 15 9.006c-1.08-.6-1.92-.48-2.52.12L27.48 24l5.04-5.038Z" fill="url(#e)"/><path opacity=".2" d="M32.4 28.918 15 38.755c-.96.6-1.8.48-2.4 0l-.12.12.12.12c.6.48 1.44.6 2.4 0l17.4-10.077Z" fill="#424551"/><path opacity=".2" d="M12.48 38.755c-.36-.36-.48-.96-.48-1.68v.12c0 .72.24 1.32.6 1.68v-.12h-.12ZM38.4 25.559l-6 3.36.12.12 5.88-3.36c.84-.48 1.2-1.08 1.2-1.679 0 .6-.48 1.08-1.2 1.56Z" fill="#424551"/><path opacity=".2" d="m15 9.125 23.4 13.316c.72.48 1.2.96 1.2 1.559 0-.6-.36-1.2-1.2-1.68L15 9.006c-1.68-.96-3-.24-3 1.68v.12c0-1.8 1.32-2.64 3-1.68Z" fill="#fff"/></g><defs><linearGradient id="b" x1="26.16" y1="10.457" x2="6.027" y2="30.596" gradientUnits="userSpaceOnUse"><stop stop-color="#00A0FF"/><stop offset=".007" stop-color="#00A1FF"/><stop offset=".26" stop-color="#00BEFF"/><stop offset=".512" stop-color="#00D2FF"/><stop offset=".76" stop-color="#00DFFF"/><stop offset="1" stop-color="#00E3FF"/></linearGradient><linearGradient id="c" x1="40.601" y1="24" x2="11.565" y2="24" gradientUnits="userSpaceOnUse"><stop stop-color="#FFE000"/><stop offset=".409" stop-color="#FFBD00"/><stop offset=".775" stop-color="orange"/><stop offset="1" stop-color="#FF9C00"/></linearGradient><linearGradient id="d" x1="29.793" y1="26.754" x2="2.493" y2="54.064" gradientUnits="userSpaceOnUse"><stop stop-color="#FF3A44"/><stop offset="1" stop-color="#C31162"/></linearGradient><linearGradient id="e" x1="8.757" y1=".22" x2="20.948" y2="12.415" gradientUnits="userSpaceOnUse"><stop stop-color="#32A071"/><stop offset=".069" stop-color="#2DA771"/><stop offset=".476" stop-color="#15CF74"/><stop offset=".801" stop-color="#06E775"/><stop offset="1" stop-color="#00F076"/></linearGradient><clipPath id="a"><path fill="#fff" d="M0 0h162v48H0z"/></clipPath></defs></svg>