<svg width="16" height="16" fill="none" xmlns="http://www.w3.org/2000/svg"><g clip-path="url(#a)" fill-rule="evenodd" clip-rule="evenodd" fill="#fff"><path d="M11.666 6.333c.368 0 .667.298.667.667v7.5a.667.667 0 0 1-1.334 0V7c0-.369.299-.667.667-.667Zm0-5.5c.368 0 .667.298.667.667v2a.667.667 0 0 1-1.334 0v-2c0-.369.299-.667.667-.667Z"/><path d="M8 4.833a2 2 0 0 1 2-2h3.333a2 2 0 0 1 2 2v.833a2 2 0 0 1-2 2H9.999a2 2 0 0 1-2-2v-.833Zm2-.667a.667.667 0 0 0-.667.667v.833c0 .369.298.667.666.667h3.334a.667.667 0 0 0 .666-.667v-.833a.667.667 0 0 0-.666-.667H9.999Zm-5.667 7.667c.368 0 .666.299.666.667v2a.667.667 0 0 1-1.333 0v-2c0-.368.298-.667.667-.667Zm0-11c.368 0 .666.298.666.667V9a.667.667 0 0 1-1.333 0V1.5c0-.369.298-.667.667-.667Z"/><path d="M.666 10.333a2 2 0 0 1 2-2h3.333a2 2 0 0 1 2 2v.833a2 2 0 0 1-2 2H2.666a2 2 0 0 1-2-2v-.833Zm2-.667a.667.667 0 0 0-.667.667v.833c0 .368.299.667.667.667h3.333a.667.667 0 0 0 .667-.667v-.833a.667.667 0 0 0-.667-.667H2.666Z"/></g><defs><clipPath id="a"><path fill="#fff" d="M0 0h16v16H0z"/></clipPath></defs></svg>