<svg width="16" height="17" fill="none" xmlns="http://www.w3.org/2000/svg"><path fill-rule="evenodd" clip-rule="evenodd" d="M8.523 3.28a2 2 0 0 0-1.045 0c-.356.097-.702.35-1.687 1.117L4.057 5.745c-.634.493-.847.666-.998.87a2 2 0 0 0-.318.65c-.068.244-.074.518-.074 1.321V13c0 .513.008.622.03.693.064.213.23.38.444.445.07.021.18.028.693.028h.533A.667.667 0 0 0 5 13.531V11.5a3 3 0 0 1 6 0v1.916c0 .086.001.104.002.116.016.343.29.617.633.633l.116.001h.416c.514 0 .623-.007.694-.028a.667.667 0 0 0 .444-.445c.022-.07.03-.18.03-.693V8.586c0-.803-.007-1.077-.075-1.321a2.002 2.002 0 0 0-.318-.65c-.15-.204-.363-.377-.998-.87l-1.733-1.348C9.225 3.63 8.88 3.377 8.523 3.28ZM7.13 1.995a3.333 3.333 0 0 1 1.742 0c.649.175 1.218.619 2.044 1.262l.114.088 1.733 1.348.07.055c.537.417.908.705 1.181 1.075.241.326.42.693.53 1.083.124.443.124.912.123 1.592v4.587c.001.38.001.71-.086.996a2 2 0 0 1-1.333 1.334c-.287.087-.616.086-.997.086h-.514c-.064 0-.118 0-.168-.003a2 2 0 0 1-1.902-2.067V11.5a1.667 1.667 0 0 0-3.333 0v1.93c0 .064 0 .118-.002.168a2 2 0 0 1-1.9 1.9c-.05.002-.104.002-.167.002H3.75c-.38 0-.71 0-.996-.086A2 2 0 0 1 1.42 14.08c-.087-.287-.086-.616-.086-.996V8.496c0-.679 0-1.148.123-1.59.11-.391.29-.758.53-1.084.274-.37.645-.658 1.18-1.075l.072-.055 1.733-1.348.113-.088c.826-.643 1.396-1.087 2.045-1.262Z" fill="#424551"/></svg>