<svg width="48" height="48" fill="none" xmlns="http://www.w3.org/2000/svg"><path d="M40.5 34.313a1.874 1.874 0 1 0-.001 3.748 1.874 1.874 0 0 0 .001-3.748Zm-.937-7.5a.938.938 0 1 0 0 1.875.938.938 0 0 0 0-1.875Zm-27.75 7.5a1.874 1.874 0 1 0-.002 3.748 1.874 1.874 0 0 0 .002-3.748Z" fill="#17696A"/><path d="m44.06 23.123-1.617-6.466a2.79 2.79 0 0 0 .87-2.032 2.816 2.816 0 0 0-2.813-2.813H33V9a2.816 2.816 0 0 0-2.813-2.813H2.813A2.816 2.816 0 0 0 0 9v24.375a2.816 2.816 0 0 0 2.813 2.813h3.374a5.631 5.631 0 0 0 5.625 5.624 5.631 5.631 0 0 0 5.626-5.624h17.437a5.631 5.631 0 0 0 5.625 5.624 5.631 5.631 0 0 0 5.625-5.624c0-.054-.003-.107-.004-.16A2.817 2.817 0 0 0 48 33.375V27.75c0-2.33-1.71-4.269-3.94-4.627Zm-3.355-5.686 1.407 5.625h-7.786l2.15-2.15a.937.937 0 1 0-1.326-1.325L33 21.737v-4.3h7.705Zm.733-2.812c0 .518-.42.938-.938.938H33v-1.876h7.5c.517 0 .938.42.938.938ZM11.811 39.938a3.754 3.754 0 0 1-3.75-3.75 3.756 3.756 0 0 1 3.75-3.75 3.756 3.756 0 0 1 3.75 3.75 3.754 3.754 0 0 1-3.75 3.75Zm5.304-5.626a5.645 5.645 0 0 0-5.303-3.75 5.644 5.644 0 0 0-5.304 3.75H2.812a.938.938 0 0 1-.937-.937V9c0-.517.42-.938.938-.938h27.375c.517 0 .937.42.937.938v25.313h-14.01ZM40.5 39.938a3.754 3.754 0 0 1-3.75-3.75 3.756 3.756 0 0 1 3.75-3.75 3.756 3.756 0 0 1 3.75 3.75 3.754 3.754 0 0 1-3.75 3.75Zm5.236-5.805a5.646 5.646 0 0 0-5.236-3.57 5.644 5.644 0 0 0-5.303 3.75H33v-9.376h10.313c1.221 0 2.264.784 2.65 1.875h-2.65a.937.937 0 1 0 0 1.875h2.812v4.688a.937.937 0 0 1-.389.758Z" fill="#17696A"/><path d="M16.5 11.813c-4.652 0-8.438 3.785-8.438 8.437 0 4.652 3.786 8.438 8.438 8.438 4.652 0 8.438-3.786 8.438-8.438 0-4.652-3.786-8.438-8.438-8.438Zm0 15a6.57 6.57 0 0 1-6.563-6.563 6.57 6.57 0 0 1 6.563-6.563 6.57 6.57 0 0 1 6.563 6.563 6.57 6.57 0 0 1-6.563 6.563Z" fill="#17696A"/><path d="M20.25 19.313h-2.813V16.5a.937.937 0 1 0-1.875 0v3.75c0 .518.42.938.938.938h3.75a.937.937 0 1 0 0-1.875Z" fill="#17696A"/></svg>