<svg width="48" height="48" fill="none" xmlns="http://www.w3.org/2000/svg"><path d="M28.691 22.5a.938.938 0 1 0 0-1.876.938.938 0 0 0 0 1.876Zm-9.375 0a.938.938 0 1 0 0-1.876.938.938 0 0 0 0 1.876Z" fill="#17696A"/><path d="M3.375 45.005v2.057c0 .518.42.938.938.938h39.374c.518 0 .938-.42.938-.938v-2.06c0-3.727-2.094-7.173-5.97-8.588a6.578 6.578 0 0 0 2.252-4.954.938.938 0 0 0-.938-.937 4.73 4.73 0 0 1-4.613-3.71h2.71A2.815 2.815 0 0 0 40.875 24v-4.313A2.817 2.817 0 0 0 39 17.037V15c0-8.27-6.728-15-14.997-15C15.714 0 9 6.708 9 15v2.037a2.819 2.819 0 0 0-1.875 2.65V24a2.817 2.817 0 0 0 2.815 2.813h2.704a4.726 4.726 0 0 1-4.609 3.71.938.938 0 0 0-.937.937c0 1.941.854 3.735 2.258 4.96-3.861 1.415-5.981 4.896-5.981 8.585ZM38.953 32.32a4.698 4.698 0 0 1-2.886 3.506l-5.68-.738-.606-2.371a11.214 11.214 0 0 0 4.127-4.311 6.628 6.628 0 0 0 5.045 3.914Zm-7.436-15.445c-2.59 0-4.697-2.133-4.697-4.756a.937.937 0 1 0-1.875 0c0 2.623-2.107 4.756-4.698 4.756h-5.62c0-5.17 4.207-9.375 9.376-9.375a9.37 9.37 0 0 1 9.375 9.375h-1.861ZM14.625 18.75h5.622c2.39 0 4.485-1.292 5.635-3.22 1.151 1.928 3.246 3.22 5.635 3.22h1.858v4.313a9.341 9.341 0 0 1-5.125 8.359 9.27 9.27 0 0 1-4.247 1.015 9.279 9.279 0 0 1-4.235-1.007 9.374 9.374 0 0 1-2.396-1.739 9.31 9.31 0 0 1-2.747-6.628V18.75Zm5.336 14.815c1.284.495 2.639.748 4.042.748 1.409 0 2.769-.255 4.058-.756l.595 2.328a4.67 4.67 0 0 1-4.644 4.053 4.67 4.67 0 0 1-4.644-4.052l.593-2.321ZM39 24c0 .517-.42.938-.935.938H35.25V18.75h2.815c.516 0 .935.42.935.938V24ZM24.003 1.875c7.235 0 13.122 5.888 13.122 13.125v1.875h-1.872c0-6.216-5.03-11.25-11.25-11.25-6.203 0-11.25 5.047-11.25 11.25h-1.878V15c0-7.252 5.872-13.125 13.128-13.125ZM9 24v-4.313a.94.94 0 0 1 .94-.937h2.81v6.188H9.94A.94.94 0 0 1 9 24Zm5.093 4.403a11.288 11.288 0 0 0 4.147 4.322l-.604 2.364-5.695.739a4.702 4.702 0 0 1-2.889-3.508 6.624 6.624 0 0 0 5.041-3.917Zm-2.251 9.328.103-.014h.003l5.73-.743a6.54 6.54 0 0 0 6.334 4.839 6.539 6.539 0 0 0 6.333-4.84l5.836.758c4.11.534 6.569 3.614 6.569 7.272v1.122H5.25v-1.12c0-3.59 2.457-6.737 6.592-7.274Z" fill="#17696A"/><path d="M21.497 28.944c.787.37 1.63.56 2.506.56.855 0 1.682-.181 2.458-.537a.937.937 0 1 0-.783-1.704 3.99 3.99 0 0 1-1.675.365 3.972 3.972 0 0 1-1.707-.38.937.937 0 1 0-.799 1.696Zm10.944 14.744h3.75a.937.937 0 1 0 0-1.876h-3.75a.937.937 0 1 0 0 1.876Zm7.497-1.875a.938.938 0 1 1-.001 1.875.938.938 0 0 1 0-1.876Z" fill="#17696A"/></svg>