<svg width="48" height="48" fill="none" xmlns="http://www.w3.org/2000/svg"><path d="M24 33.375a.938.938 0 1 0 0 1.876.938.938 0 0 0 0-1.876Z" fill="#17696A"/><path d="M45.188 18.375h-3.376V4.312A2.816 2.816 0 0 0 39 1.5H2.812A2.816 2.816 0 0 0 0 4.313v22.5a2.816 2.816 0 0 0 2.813 2.812h3.374v14.063A2.816 2.816 0 0 0 9 46.5h36.188A2.816 2.816 0 0 0 48 43.687v-22.5a2.816 2.816 0 0 0-2.813-2.812ZM1.874 9h38.063v3.75H1.874V9Zm.938-5.625H39c.517 0 .938.42.938.938v2.812H1.874V4.312c0-.517.42-.937.938-.937Zm0 24.375a.938.938 0 0 1-.938-.938V14.626h38.063v3.75H9a2.816 2.816 0 0 0-2.813 2.813v6.562H2.813Zm43.312 15.938c0 .517-.42.937-.938.937H9a.938.938 0 0 1-.938-.938v-22.5c0-.517.42-.937.938-.937h36.188c.517 0 .937.42.937.938v22.5Z" fill="#17696A"/><path d="M37.125 24a4.69 4.69 0 0 0-2.813.94A4.685 4.685 0 0 0 31.5 24a4.693 4.693 0 0 0-4.688 4.688 4.693 4.693 0 0 0 4.688 4.687 4.685 4.685 0 0 0 2.812-.94 4.69 4.69 0 0 0 2.813.94 4.693 4.693 0 0 0 4.688-4.688A4.693 4.693 0 0 0 37.124 24Zm-8.438 4.688a2.812 2.812 0 0 1 4.92-1.86h.002a2.804 2.804 0 0 1 0 3.72 2.812 2.812 0 0 1-4.922-1.86Zm8.438 2.812a2.816 2.816 0 0 1-1.563-.475 4.68 4.68 0 0 0 0-4.675 2.816 2.816 0 0 1 1.563-.475 2.816 2.816 0 0 1 2.813 2.813 2.816 2.816 0 0 1-2.813 2.812ZM16.5 39h-3.75a.937.937 0 1 0 0 1.875h3.75a.937.937 0 1 0 0-1.875Zm7.5 0h-3.75a.937.937 0 1 0 0 1.875H24A.937.937 0 1 0 24 39Zm7.5 0h-3.75a.937.937 0 1 0 0 1.875h3.75a.937.937 0 1 0 0-1.875Zm7.5 0h-3.75a.937.937 0 1 0 0 1.875H39A.937.937 0 1 0 39 39Zm-26.25-3.75h7.5a.937.937 0 1 0 0-1.875h-7.5a.937.937 0 1 0 0 1.875Z" fill="#17696A"/></svg>