<svg width="17" height="16" fill="none" xmlns="http://www.w3.org/2000/svg"><path fill-rule="evenodd" clip-rule="evenodd" d="M2.594 2.006A5.015 5.015 0 0 0 2.27 2H1.167a.667.667 0 0 1 0-1.333h1.122c.142 0 .284 0 .406.01.135.01.292.033.454.106.229.102.424.266.564.474.099.147.15.298.182.43.03.117.054.257.079.398l.003.018.16.914 8.675.257c.34.01.634.018.876.045.256.028.51.081.752.21a2 2 0 0 1 .852.878c.123.247.168.502.188.759.02.242.02.536.02.876v.05c0 .319 0 .596-.018.826-.019.244-.06.486-.172.724a2 2 0 0 1-.788.867 2.013 2.013 0 0 1-.703.241c-.227.04-.503.067-.822.098l-6.489.628c-.326.031-.608.059-.844.063-.25.004-.5-.015-.752-.108a2 2 0 0 1-.937-.714 2.029 2.029 0 0 1-.303-.696c-.059-.228-.107-.508-.163-.83l-.845-4.86a5.008 5.008 0 0 0-.063-.325h-.007ZM4.37 4.358l.449 2.58c.062.354.102.58.145.752a.748.748 0 0 0 .097.252.667.667 0 0 0 .312.238c.034.012.1.029.268.026.177-.003.407-.025.764-.06l6.441-.623a10.8 10.8 0 0 0 .743-.086.746.746 0 0 0 .253-.074.667.667 0 0 0 .262-.29.746.746 0 0 0 .05-.258c.013-.172.014-.397.014-.748 0-.372 0-.612-.015-.795-.015-.175-.038-.24-.055-.273a.667.667 0 0 0-.284-.293c-.032-.017-.097-.043-.271-.062-.182-.02-.422-.027-.794-.038L4.37 4.358Zm1.797 7.309a.667.667 0 1 0 0 1.333.667.667 0 0 0 0-1.333Zm-2 .667a2 2 0 1 1 4 0 2 2 0 0 1-4 0Zm8.333-.667a.667.667 0 1 0 0 1.333.667.667 0 0 0 0-1.333Zm-2 .667a2 2 0 1 1 4 0 2 2 0 0 1-4 0Z" fill="#fff"/></svg>