<svg width="55" height="42" fill="none" xmlns="http://www.w3.org/2000/svg"><path d="M53.198 41.426v.108h.101a.106.106 0 0 0 .054-.014.049.049 0 0 0 .02-.04.046.046 0 0 0-.02-.041.098.098 0 0 0-.054-.014h-.1v.001Zm.102-.076a.186.186 0 0 1 .121.035.116.116 0 0 1 .042.095.108.108 0 0 1-.034.084.166.166 0 0 1-.096.04l.135.154h-.104l-.124-.152h-.04v.152h-.087v-.408h.188Zm-.027.55a.347.347 0 0 0 .314-.208.35.35 0 0 0 0-.268.355.355 0 0 0-.181-.181.355.355 0 0 0-.268 0 .346.346 0 0 0-.11.073.35.35 0 0 0 0 .486.347.347 0 0 0 .245.1v-.003Zm0-.78a.452.452 0 0 1 .413.269.434.434 0 0 1-.096.481.442.442 0 0 1-.317.13.449.449 0 0 1-.45-.445.434.434 0 0 1 .274-.405.448.448 0 0 1 .178-.035l-.002.004Zm-41.326-1.578c0-.778.51-1.418 1.344-1.418.796 0 1.334.612 1.334 1.418 0 .806-.538 1.419-1.334 1.419-.834 0-1.344-.64-1.344-1.419Zm3.586 0v-2.215h-.963v.54c-.306-.4-.769-.65-1.4-.65-1.24 0-2.215.974-2.215 2.326 0 1.353.974 2.327 2.216 2.327.63 0 1.094-.25 1.399-.65v.538h.962v-2.216h.001Zm32.547 0c0-.778.51-1.418 1.345-1.418.797 0 1.334.612 1.334 1.418 0 .806-.537 1.419-1.334 1.419-.834 0-1.345-.64-1.345-1.419Zm3.588 0v-3.994h-.964v2.318c-.306-.399-.77-.649-1.4-.649-1.24 0-2.215.974-2.215 2.326 0 1.353.974 2.327 2.216 2.327.63 0 1.093-.25 1.399-.65v.538h.964v-2.216Zm-24.18-1.464c.621 0 1.02.39 1.122 1.075h-2.3c.103-.64.491-1.075 1.178-1.075Zm.02-.863c-1.298 0-2.206.944-2.206 2.326 0 1.409.944 2.326 2.27 2.326.668 0 1.279-.166 1.816-.62l-.472-.715a2.112 2.112 0 0 1-1.288.464c-.621 0-1.186-.288-1.325-1.085h3.289c.01-.12.019-.24.019-.37-.01-1.381-.864-2.326-2.104-2.326Zm11.63 2.326c0-.779.51-1.419 1.343-1.419.797 0 1.334.612 1.334 1.419 0 .806-.537 1.418-1.334 1.418-.834 0-1.344-.64-1.344-1.418Zm3.585 0v-2.214h-.962v.54c-.307-.4-.77-.65-1.4-.65-1.241 0-2.215.974-2.215 2.326 0 1.353.973 2.327 2.215 2.327.63 0 1.093-.25 1.4-.65v.538h.962v-2.217Zm-9.026 0c0 1.344.936 2.326 2.364 2.326.667 0 1.111-.148 1.592-.528l-.463-.779c-.361.26-.741.399-1.16.399-.77-.01-1.334-.566-1.334-1.418 0-.853.565-1.409 1.334-1.419.418 0 .798.14 1.16.4l.463-.78c-.481-.38-.926-.527-1.592-.527-1.428 0-2.364.982-2.364 2.326Zm12.418-2.326c-.555 0-.917.26-1.168.649v-.537h-.954v4.429h.964v-2.483c0-.733.315-1.14.945-1.14.206-.003.41.034.602.111l.297-.908a2.047 2.047 0 0 0-.686-.12v-.002Zm-25.82.464c-.463-.306-1.102-.464-1.806-.464-1.122 0-1.845.538-1.845 1.418 0 .722.538 1.168 1.529 1.307l.455.065c.528.074.777.213.777.463 0 .343-.35.538-1.01.538-.666 0-1.148-.213-1.473-.463l-.452.75c.528.39 1.195.576 1.918.576 1.279 0 2.02-.603 2.02-1.446 0-.779-.583-1.186-1.547-1.325l-.454-.066c-.417-.054-.751-.138-.751-.435 0-.324.315-.518.843-.518.566 0 1.113.213 1.381.38l.417-.78h-.002Zm12.43-.463c-.556 0-.918.26-1.167.65v-.54h-.955v4.43h.963v-2.483c0-.733.315-1.14.945-1.14.206-.003.41.034.602.111l.297-.908a2.047 2.047 0 0 0-.686-.12Zm-8.22.11h-1.576v-1.343h-.973v1.344h-.899v.88h.899v2.02c0 1.028.399 1.64 1.538 1.64.418 0 .9-.13 1.205-.342l-.278-.825c-.288.167-.602.25-.853.25-.482 0-.639-.296-.639-.74v-2.002h1.576v-.881Zm-14.402 4.431v-2.78c0-1.047-.667-1.751-1.742-1.76-.566-.01-1.15.166-1.558.787-.305-.49-.787-.788-1.463-.788-.474 0-.936.14-1.298.658v-.547h-.964v4.429h.972V39.3c0-.769.426-1.178 1.085-1.178.64 0 .963.417.963 1.168v2.465h.974V39.3c0-.768.444-1.177 1.084-1.177.657 0 .971.417.971 1.168v2.465l.976.002Z" fill="#231F20"/><path d="M53.75 27.022v-.648h-.17l-.194.445-.194-.445h-.17v.648h.12v-.488l.183.42h.124l.182-.421v.489h.12-.001Zm-1.07 0v-.537h.215v-.11h-.551v.11h.216v.537h.12Z" fill="#F79410"/><path d="M34.578 29.801H19.98V3.567h14.598v26.234Z" fill="#FF5F00"/><path d="M20.905 16.684a16.657 16.657 0 0 1 6.372-13.117A16.61 16.61 0 0 0 16.967 0C7.754 0 .285 7.47.285 16.684c0 9.215 7.469 16.684 16.682 16.684a16.611 16.611 0 0 0 10.31-3.567 16.656 16.656 0 0 1-6.372-13.117Z" fill="#EB001B"/><path d="M54.27 16.684c0 9.215-7.468 16.684-16.681 16.684a16.616 16.616 0 0 1-10.312-3.567 16.654 16.654 0 0 0 6.373-13.117 16.654 16.654 0 0 0-6.373-13.117A16.616 16.616 0 0 1 37.588 0C46.802 0 54.27 7.47 54.27 16.684" fill="#F79E1B"/></svg>