<svg width="78" height="21" fill="none" xmlns="http://www.w3.org/2000/svg"><path d="M14.274 2.381C13.358 1.337 11.703.89 9.584.89H3.436a.88.88 0 0 0-.87.742L.005 17.87a.528.528 0 0 0 .522.61h3.796l.953-6.047-.03.19a.878.878 0 0 1 .867-.743h1.804c3.543 0 6.318-1.44 7.128-5.603a9.13 9.13 0 0 0 .063-.36c.24-1.54-.002-2.587-.834-3.535" fill="#003087"/><path d="M60.744 10.108c-.232 1.524-1.395 1.524-2.52 1.524h-.64l.448-2.845a.354.354 0 0 1 .35-.298h.294c.766 0 1.49 0 1.862.436.223.26.29.648.206 1.183Zm-.49-3.975H56.01a.591.591 0 0 0-.584.498l-1.715 10.883a.354.354 0 0 0 .35.409h2.178a.413.413 0 0 0 .407-.348l.487-3.087a.59.59 0 0 1 .583-.498h1.343c2.796 0 4.41-1.352 4.83-4.034.19-1.172.008-2.094-.54-2.74-.604-.708-1.674-1.084-3.094-1.084" fill="#009CDE"/><path d="M30.47 10.108c-.231 1.524-1.395 1.524-2.52 1.524h-.64l.449-2.845a.354.354 0 0 1 .349-.298h.294c.766 0 1.49 0 1.862.436.224.261.291.648.207 1.183Zm-.489-3.975h-4.245a.59.59 0 0 0-.582.498l-1.716 10.883a.354.354 0 0 0 .35.409h2.026a.59.59 0 0 0 .582-.498l.464-2.936a.59.59 0 0 1 .582-.498h1.343c2.797 0 4.41-1.353 4.831-4.035.19-1.172.008-2.094-.54-2.739-.605-.71-1.674-1.085-3.095-1.085Zm9.854 7.882c-.197 1.162-1.118 1.942-2.294 1.942-.59 0-1.061-.19-1.364-.55-.301-.355-.414-.862-.319-1.427.183-1.15 1.12-1.955 2.278-1.955.577 0 1.045.191 1.355.553.311.366.434.876.344 1.438Zm2.833-3.956h-2.032a.354.354 0 0 0-.35.3l-.09.567-.142-.206c-.44-.638-1.42-.852-2.4-.852-2.246 0-4.164 1.702-4.537 4.088-.194 1.191.081 2.329.757 3.123.62.73 1.505 1.033 2.56 1.033 1.81 0 2.813-1.162 2.813-1.162l-.09.565a.354.354 0 0 0 .349.409h1.83a.59.59 0 0 0 .583-.498l1.099-6.958a.354.354 0 0 0-.35-.409" fill="#003087"/><path d="M70.108 14.015c-.197 1.162-1.118 1.942-2.294 1.942-.59 0-1.062-.19-1.365-.55-.301-.355-.414-.862-.319-1.427.183-1.15 1.12-1.955 2.278-1.955.577 0 1.045.191 1.355.553.311.366.434.876.345 1.438Zm2.832-3.956h-2.032a.354.354 0 0 0-.35.3l-.09.567-.142-.206c-.44-.638-1.42-.852-2.4-.852-2.245 0-4.163 1.702-4.537 4.088-.194 1.191.082 2.329.757 3.123.62.73 1.505 1.033 2.56 1.033 1.81 0 2.814-1.162 2.814-1.162l-.09.565a.355.355 0 0 0 .2.376.352.352 0 0 0 .148.033h1.83a.59.59 0 0 0 .583-.498l1.099-6.958a.354.354 0 0 0-.35-.409" fill="#009CDE"/><path d="M53.494 10.06h-2.043a.587.587 0 0 0-.487.258l-2.819 4.15-1.195-3.988a.59.59 0 0 0-.565-.421h-2.008a.354.354 0 0 0-.335.468l2.25 6.603-2.116 2.986a.354.354 0 0 0 .289.558h2.041a.59.59 0 0 0 .484-.254l6.794-9.805a.354.354 0 0 0-.29-.556Z" fill="#003087"/><path d="m75.337 6.433-1.743 11.082a.353.353 0 0 0 .35.409h1.752a.59.59 0 0 0 .582-.498l1.718-10.884a.353.353 0 0 0-.35-.409h-1.96a.353.353 0 0 0-.35.299" fill="#009CDE"/><path d="M14.274 2.381C13.358 1.337 11.703.89 9.584.89H3.436a.88.88 0 0 0-.87.742L.005 17.87a.528.528 0 0 0 .522.61h3.796l.953-6.047-.03.19a.878.878 0 0 1 .867-.743h1.804c3.543 0 6.318-1.44 7.128-5.603a9.13 9.13 0 0 0 .063-.36c.24-1.54-.002-2.587-.834-3.535" fill="#003087"/><path d="M6.302 5.936a.77.77 0 0 1 .76-.65h4.82c.57 0 1.103.038 1.59.116.266.043.529.101.788.176.294.083.578.196.849.338.242-1.54-.002-2.586-.834-3.535C13.358 1.337 11.703.89 9.585.89h-6.15a.88.88 0 0 0-.868.742L.007 17.868a.528.528 0 0 0 .52.61h3.797l.953-6.047 1.025-6.495Z" fill="#003087"/><path d="M15.108 5.916c-.018.12-.04.24-.063.36-.81 4.163-3.585 5.603-7.128 5.603H6.113a.876.876 0 0 0-.866.742l-.924 5.857-.263 1.662a.462.462 0 0 0 .457.534h3.2a.77.77 0 0 0 .76-.65l.03-.163.604-3.822.038-.211a.77.77 0 0 1 .761-.65h.479c3.1 0 5.527-1.258 6.236-4.901.295-1.521.142-2.793-.64-3.685a3.055 3.055 0 0 0-.877-.676Z" fill="#009CDE"/><path d="M14.259 5.579a6.77 6.77 0 0 0-.789-.175 9.94 9.94 0 0 0-1.59-.117H7.06a.768.768 0 0 0-.76.65l-1.024 6.496-.03.19a.877.877 0 0 1 .866-.744h1.804c3.544 0 6.318-1.439 7.129-5.602.024-.124.044-.243.063-.36a4.378 4.378 0 0 0-.85-.339" fill="#012169"/></svg>