<svg width="20" height="20" fill="none" xmlns="http://www.w3.org/2000/svg"><path d="M10.251.833C5.191.833 2.5 4.053 2.5 7.564c0 1.628.916 3.66 2.383 4.303.419.188.363-.04.723-1.408a.323.323 0 0 0-.078-.319c-2.097-2.408-.41-7.36 4.424-7.36 6.995 0 5.688 9.612 1.217 9.612-1.152 0-2.011-.899-1.74-2.01.33-1.324.974-2.747.974-3.701 0-2.405-3.607-2.048-3.607 1.138 0 .985.35 1.65.35 1.65L5.77 14.994c-.364 1.473.05 3.857.086 4.062.022.113.15.15.221.056.115-.149 1.518-2.136 1.911-3.573.143-.524.73-2.647.73-2.647.387.693 1.502 1.274 2.69 1.274 3.537 0 6.092-3.086 6.092-6.916-.012-3.67-3.176-6.417-7.249-6.417Z"/></svg>