<?xml version="1.0" encoding="utf-8"?><svg xmlns="http://www.w3.org/2000/svg" xmlns:xlink="http://www.w3.org/1999/xlink"><symbol fill="none" viewBox="0 0 16 17" id="icons--Profile" xmlns="http://www.w3.org/2000/svg"><path fill-rule="evenodd" clip-rule="evenodd" d="M8 2.666a2.333 2.333 0 1 0 0 4.667 2.333 2.333 0 0 0 0-4.667ZM4.335 5a3.667 3.667 0 1 1 7.333 0 3.667 3.667 0 0 1-7.333 0ZM4.07 10.666c-.462 0-.824.225-.97.549-.203.447-.387.98-.43 1.486-.02.225.074.392.204.473.686.426 2.276 1.159 5.127 1.159 2.85 0 4.44-.733 5.126-1.16.13-.08.224-.247.204-.473-.043-.505-.227-1.038-.43-1.485-.146-.324-.508-.549-.97-.549H4.07Zm-2.185-.002c.406-.894 1.31-1.331 2.185-1.331h7.861c.874 0 1.78.437 2.185 1.331.232.513.482 1.203.544 1.922.056.655-.216 1.339-.83 1.72-.902.56-2.736 1.36-5.83 1.36-3.093 0-4.927-.8-5.83-1.36-.613-.381-.885-1.065-.829-1.72.062-.719.312-1.409.544-1.922Z" fill="#fff"/></symbol><symbol viewBox="0 0 16 16" id="icons--arrow-next" xmlns="http://www.w3.org/2000/svg"><path fill-rule="evenodd" clip-rule="evenodd" d="M5.53 2.862c.26-.26.682-.26.942 0L11.14 7.53c.26.26.26.682 0 .943l-4.667 4.666a.667.667 0 0 1-.943-.942L9.725 8 5.529 3.805a.667.667 0 0 1 0-.943Z"/></symbol><symbol viewBox="0 0 16 16" id="icons--arrow-prev" xmlns="http://www.w3.org/2000/svg"><path fill-rule="evenodd" clip-rule="evenodd" d="M10.47 2.862a.667.667 0 0 0-.942 0L4.86 7.53a.667.667 0 0 0 0 .943l4.667 4.666a.667.667 0 0 0 .943-.942L6.275 8l4.196-4.195a.667.667 0 0 0 0-.943Z"/></symbol><symbol fill="none" viewBox="0 0 48 48" id="icons--benefits--1" xmlns="http://www.w3.org/2000/svg"><path d="M40.5 34.313a1.874 1.874 0 1 0-.001 3.748 1.874 1.874 0 0 0 .001-3.748ZM39.563 26.813a.938.938 0 1 0 0 1.875.938.938 0 0 0 0-1.875ZM11.813 34.313a1.874 1.874 0 1 0-.002 3.748 1.874 1.874 0 0 0 .002-3.748Z" fill="#17696A"/><path d="m44.06 23.123-1.617-6.466a2.79 2.79 0 0 0 .87-2.032 2.816 2.816 0 0 0-2.813-2.813H33V9a2.816 2.816 0 0 0-2.813-2.813H2.813A2.816 2.816 0 0 0 0 9v24.375a2.816 2.816 0 0 0 2.813 2.813h3.374a5.631 5.631 0 0 0 5.625 5.624 5.631 5.631 0 0 0 5.626-5.624h17.437a5.631 5.631 0 0 0 5.625 5.624 5.631 5.631 0 0 0 5.625-5.624c0-.054-.003-.107-.004-.16A2.817 2.817 0 0 0 48 33.375V27.75c0-2.33-1.71-4.269-3.94-4.627Zm-3.355-5.686 1.407 5.625h-7.786l2.15-2.15a.937.937 0 1 0-1.326-1.325L33 21.737v-4.3h7.705Zm.733-2.812c0 .518-.42.938-.938.938H33v-1.876h7.5c.517 0 .938.42.938.938ZM11.811 39.938a3.754 3.754 0 0 1-3.75-3.75 3.756 3.756 0 0 1 3.75-3.75 3.756 3.756 0 0 1 3.75 3.75 3.754 3.754 0 0 1-3.75 3.75Zm5.304-5.626a5.645 5.645 0 0 0-5.303-3.75 5.644 5.644 0 0 0-5.304 3.75H2.812a.938.938 0 0 1-.937-.937V9c0-.517.42-.938.938-.938h27.375c.517 0 .937.42.937.938v25.313h-14.01ZM40.5 39.938a3.754 3.754 0 0 1-3.75-3.75 3.756 3.756 0 0 1 3.75-3.75 3.756 3.756 0 0 1 3.75 3.75 3.754 3.754 0 0 1-3.75 3.75Zm5.236-5.805a5.646 5.646 0 0 0-5.236-3.57 5.644 5.644 0 0 0-5.303 3.75H33v-9.376h10.313c1.221 0 2.264.784 2.65 1.875h-2.65a.937.937 0 1 0 0 1.875h2.812v4.688a.937.937 0 0 1-.389.758Z" fill="#17696A"/><path d="M16.5 11.813c-4.652 0-8.438 3.785-8.438 8.437 0 4.652 3.786 8.438 8.438 8.438 4.652 0 8.438-3.786 8.438-8.438 0-4.652-3.786-8.438-8.438-8.438Zm0 15a6.57 6.57 0 0 1-6.563-6.563 6.57 6.57 0 0 1 6.563-6.563 6.57 6.57 0 0 1 6.563 6.563 6.57 6.57 0 0 1-6.563 6.563Z" fill="#17696A"/><path d="M20.25 19.313h-2.813V16.5a.937.937 0 1 0-1.875 0v3.75c0 .518.42.938.938.938h3.75a.937.937 0 1 0 0-1.875Z" fill="#17696A"/></symbol><symbol fill="none" viewBox="0 0 48 48" id="icons--benefits--2" xmlns="http://www.w3.org/2000/svg"><path d="M28.691 22.5a.938.938 0 1 0 0-1.876.938.938 0 0 0 0 1.876ZM19.316 22.5a.938.938 0 1 0 0-1.876.938.938 0 0 0 0 1.876Z" fill="#17696A"/><path d="M3.375 45.005v2.057c0 .518.42.938.938.938h39.374c.518 0 .938-.42.938-.938v-2.06c0-3.727-2.094-7.173-5.97-8.588a6.578 6.578 0 0 0 2.252-4.954.938.938 0 0 0-.938-.937 4.73 4.73 0 0 1-4.613-3.71h2.71c1.548 0 2.809-1.262 2.809-2.813v-4.313A2.817 2.817 0 0 0 39 17.037V15c0-8.27-6.728-15-14.997-15C15.714 0 9 6.708 9 15v2.037a2.819 2.819 0 0 0-1.875 2.65V24a2.817 2.817 0 0 0 2.815 2.813h2.704a4.726 4.726 0 0 1-4.609 3.71.938.938 0 0 0-.937.937c0 1.941.854 3.735 2.258 4.96-3.861 1.415-5.981 4.896-5.981 8.585ZM38.953 32.32a4.698 4.698 0 0 1-2.886 3.506l-5.68-.738-.606-2.371a11.214 11.214 0 0 0 4.127-4.311 6.628 6.628 0 0 0 5.045 3.914Zm-7.436-15.445c-2.59 0-4.697-2.133-4.697-4.756a.937.937 0 1 0-1.875 0c0 2.623-2.107 4.756-4.698 4.756h-5.62c0-5.17 4.207-9.375 9.376-9.375a9.37 9.37 0 0 1 9.375 9.375h-1.861ZM14.625 18.75h5.622c2.39 0 4.485-1.292 5.635-3.22 1.151 1.928 3.246 3.22 5.635 3.22h1.858v4.313a9.341 9.341 0 0 1-5.125 8.359 9.27 9.27 0 0 1-4.247 1.015 9.279 9.279 0 0 1-4.235-1.007 9.374 9.374 0 0 1-2.396-1.739 9.31 9.31 0 0 1-2.747-6.628V18.75Zm5.336 14.815c1.284.495 2.639.748 4.042.748 1.409 0 2.769-.255 4.058-.756l.595 2.328a4.67 4.67 0 0 1-4.644 4.053 4.67 4.67 0 0 1-4.644-4.052l.593-2.321ZM39 24c0 .517-.42.938-.935.938H35.25V18.75h2.815c.516 0 .935.42.935.938V24ZM24.003 1.875c7.235 0 13.122 5.888 13.122 13.125v1.875h-1.872c0-6.216-5.03-11.25-11.25-11.25-6.203 0-11.25 5.047-11.25 11.25h-1.878V15c0-7.252 5.872-13.125 13.128-13.125ZM9 24v-4.313a.94.94 0 0 1 .94-.937h2.81v6.188H9.94A.94.94 0 0 1 9 24Zm5.093 4.403a11.288 11.288 0 0 0 4.147 4.322l-.604 2.364-5.695.739a4.702 4.702 0 0 1-2.889-3.508 6.624 6.624 0 0 0 5.041-3.917Zm-2.251 9.328.103-.014h.003l5.73-.743a6.54 6.54 0 0 0 6.334 4.839 6.539 6.539 0 0 0 6.333-4.84l5.836.758c4.11.534 6.569 3.614 6.569 7.272v1.122H5.25v-1.12c0-3.59 2.457-6.737 6.592-7.274Z" fill="#17696A"/><path d="M21.497 28.944c.787.37 1.63.56 2.506.56.855 0 1.682-.181 2.458-.537a.937.937 0 1 0-.783-1.704 3.99 3.99 0 0 1-1.675.365 3.972 3.972 0 0 1-1.707-.38.937.937 0 1 0-.799 1.696ZM32.441 43.688h3.75a.937.937 0 1 0 0-1.876h-3.75a.937.937 0 1 0 0 1.876ZM39.938 41.813a.938.938 0 1 1-.001 1.875.938.938 0 0 1 0-1.876Z" fill="#17696A"/></symbol><symbol fill="none" viewBox="0 0 48 48" id="icons--benefits--3" xmlns="http://www.w3.org/2000/svg"><g clip-path="url(#ava)" fill="#17696A"><path d="M23.99 27.281c.519 0 .94-.42.94-.937a.939.939 0 0 0-1.88 0c0 .517.422.937.94.937Z"/><path d="M23.453 47.732a.939.939 0 0 0 1.093 0c9.57-6.823 19.18-9.817 19.18-23.856V6.496a.938.938 0 0 0-.862-.934l-2.441-.204c-5.598-.465-11.105-2.301-15.926-5.31a.941.941 0 0 0-.995 0C18.68 3.058 13.172 4.894 7.575 5.359l-2.441.204a.938.938 0 0 0-.862.934v17.38c0 14.435 10.96 17.995 19.18 23.856ZM6.153 7.358l1.58-.131C13.434 6.752 19.045 4.929 24 1.944c4.953 2.985 10.564 4.808 16.267 5.283l1.58.131v16.518c0 12.66-8.452 15.375-17.849 21.946-8.247-5.714-17.846-8.957-17.846-21.946V7.358Z"/><path d="M23.453 40.917a.934.934 0 0 0 1.095-.024c8.503-5.875 13.542-7.808 13.542-17.016V11.581a.938.938 0 0 0-.8-.927 41.446 41.446 0 0 1-12.86-4.15.957.957 0 0 0-.902.02 41.418 41.418 0 0 1-12.818 4.13.938.938 0 0 0-.8.927v12.296c0 9.295 5.52 11.576 13.543 17.04ZM11.789 12.38A43.273 43.273 0 0 0 23.05 8.848v13.746a.938.938 0 0 0 1.879 0V8.84a43.305 43.305 0 0 0 11.282 3.54v11.497c0 7.621-3.577 9.283-11.282 14.483v-8.266a.938.938 0 0 0-1.879 0v8.293c-7.198-4.782-11.262-6.826-11.262-14.51V12.38Z"/></g><defs><clipPath id="ava"><path fill="#fff" d="M0 0h48v48H0z"/></clipPath></defs></symbol><symbol fill="none" viewBox="0 0 48 48" id="icons--benefits--4" xmlns="http://www.w3.org/2000/svg"><path d="M24 33.375a.938.938 0 1 0 0 1.876.938.938 0 0 0 0-1.876Z" fill="#17696A"/><path d="M45.188 18.375h-3.376V4.312A2.816 2.816 0 0 0 39 1.5H2.812A2.816 2.816 0 0 0 0 4.313v22.5a2.816 2.816 0 0 0 2.813 2.812h3.374v14.063A2.816 2.816 0 0 0 9 46.5h36.188A2.816 2.816 0 0 0 48 43.687v-22.5a2.816 2.816 0 0 0-2.813-2.812ZM1.874 9h38.063v3.75H1.874V9Zm.938-5.625H39c.517 0 .938.42.938.938v2.812H1.874V4.312c0-.517.42-.937.938-.937Zm0 24.375a.938.938 0 0 1-.938-.938V14.626h38.063v3.75H9a2.816 2.816 0 0 0-2.813 2.813v6.562H2.813Zm43.312 15.938c0 .517-.42.937-.938.937H9a.938.938 0 0 1-.938-.938v-22.5c0-.517.42-.937.938-.937h36.188c.517 0 .937.42.937.938v22.5Z" fill="#17696A"/><path d="M37.125 24a4.69 4.69 0 0 0-2.813.94A4.685 4.685 0 0 0 31.5 24a4.693 4.693 0 0 0-4.688 4.688 4.693 4.693 0 0 0 4.688 4.687 4.685 4.685 0 0 0 2.812-.94 4.69 4.69 0 0 0 2.813.94 4.693 4.693 0 0 0 4.688-4.688A4.693 4.693 0 0 0 37.124 24Zm-8.438 4.688a2.812 2.812 0 0 1 4.92-1.86h.002a2.804 2.804 0 0 1 0 3.72 2.812 2.812 0 0 1-4.922-1.86Zm8.438 2.812a2.816 2.816 0 0 1-1.563-.475 4.68 4.68 0 0 0 0-4.675 2.816 2.816 0 0 1 1.563-.475 2.816 2.816 0 0 1 2.813 2.813 2.816 2.816 0 0 1-2.813 2.812ZM16.5 39h-3.75a.937.937 0 1 0 0 1.875h3.75a.937.937 0 1 0 0-1.875ZM24 39h-3.75a.937.937 0 1 0 0 1.875H24A.937.937 0 1 0 24 39ZM31.5 39h-3.75a.937.937 0 1 0 0 1.875h3.75a.937.937 0 1 0 0-1.875ZM39 39h-3.75a.937.937 0 1 0 0 1.875H39A.937.937 0 1 0 39 39ZM12.75 35.25h7.5a.937.937 0 1 0 0-1.875h-7.5a.937.937 0 1 0 0 1.875Z" fill="#17696A"/></symbol><symbol fill="none" viewBox="0 0 16 17" id="icons--blog--Chat" xmlns="http://www.w3.org/2000/svg"><path fill-rule="evenodd" clip-rule="evenodd" d="M14.615 7.546a5.166 5.166 0 0 1-.653 1.858c.025.142.038.286.038.43 0 .502-.146.982-.415 1.419-.135.218-.17.473-.183.642-.015.193-.01.404.004.607.016.228.044.468.076.693-.26-.075-.542-.152-.812-.212a5.819 5.819 0 0 0-.66-.115c-.181-.019-.443-.034-.676.042a5.425 5.425 0 0 1-1.668.258 5.365 5.365 0 0 1-1.92-.343 8.824 8.824 0 0 1-2.712-.291C6.085 13.748 7.818 14.5 9.666 14.5a6.76 6.76 0 0 0 2.054-.315h.006c.016 0 .062 0 .147.008.134.014.306.044.504.09.395.088.839.22 1.184.33.734.232 1.445-.408 1.313-1.152-.056-.32-.115-.711-.138-1.05a2.96 2.96 0 0 1-.004-.413.783.783 0 0 1 .01-.083c.375-.621.591-1.329.591-2.082 0-.849-.264-1.624-.718-2.288Z" fill="#787A80"/><path fill-rule="evenodd" clip-rule="evenodd" d="M3.731 4.3c-.899.687-1.398 1.589-1.398 2.534 0 .471.123.925.353 1.347.088.161.113.327.121.44.01.122.005.248-.005.365a5.847 5.847 0 0 1-.134.766c-.07.307-.162.635-.255.943.352-.128.737-.259 1.102-.365.295-.087.593-.161.858-.203.228-.036.56-.072.845.027a6.48 6.48 0 0 0 2.115.347c1.432 0 2.703-.445 3.602-1.132.899-.688 1.398-1.59 1.398-2.535 0-.945-.5-1.847-1.398-2.535-.9-.687-2.17-1.132-3.602-1.132-1.431 0-2.703.445-3.602 1.132Zm-.81-1.06c1.152-.88 2.714-1.406 4.412-1.406s3.26.526 4.412 1.406c1.152.881 1.921 2.146 1.921 3.594s-.769 2.713-1.921 3.594c-1.152.88-2.714 1.406-4.412 1.406-.895 0-1.75-.146-2.527-.412 0 .003-.064-.004-.225.022-.186.03-.423.087-.693.165a20.59 20.59 0 0 0-1.599.558c-.796.31-1.606-.455-1.338-1.27.142-.43.31-.976.419-1.447.055-.237.09-.436.104-.584a1.16 1.16 0 0 0 .005-.114A4.117 4.117 0 0 1 1 6.834c0-1.448.77-2.713 1.922-3.594Z" fill="#787A80"/></symbol><symbol fill="none" viewBox="0 0 16 16" id="icons--btn-right_arrow" xmlns="http://www.w3.org/2000/svg"><path fill-rule="evenodd" clip-rule="evenodd" d="M9.862 4.528c.26-.26.682-.26.943 0l3 3c.26.26.26.683 0 .943l-3 3a.667.667 0 0 1-.943-.943l1.862-1.862H2.667a.667.667 0 0 1 0-1.333h9.057L9.862 5.471a.667.667 0 0 1 0-.943Z" fill="#17696A"/></symbol><symbol fill="none" viewBox="0 0 16 16" id="icons--btn-right_arrow-hwr" xmlns="http://www.w3.org/2000/svg"><path fill-rule="evenodd" clip-rule="evenodd" d="M9.862 4.528c.26-.26.682-.26.943 0l3 3c.26.26.26.683 0 .943l-3 3a.667.667 0 0 1-.943-.943l1.862-1.862H2.667a.667.667 0 0 1 0-1.333h9.057L9.862 5.471a.667.667 0 0 1 0-.943Z" fill="#fff"/></symbol><symbol fill="none" viewBox="0 0 22 22" id="icons--cart" xmlns="http://www.w3.org/2000/svg"><path fill-rule="evenodd" clip-rule="evenodd" d="M2.88 2.758a6.884 6.884 0 0 0-.447-.008H.917a.917.917 0 0 1 0-1.833h1.542c.197 0 .392 0 .559.013.185.014.401.046.625.146.314.14.582.366.774.652.137.203.206.41.252.59.04.163.074.355.108.548l.004.026L5 4.148l11.93.353c.466.014.87.026 1.203.062.352.04.7.112 1.035.29.507.27.916.692 1.171 1.207.169.34.23.69.26 1.042.026.334.026.738.026 1.206v.068c0 .44 0 .82-.025 1.136-.026.336-.083.669-.237.995A2.75 2.75 0 0 1 19.28 11.7c-.31.184-.636.273-.967.332-.312.054-.691.091-1.129.134l-8.923.863c-.448.043-.837.081-1.16.087-.344.006-.689-.02-1.034-.148a2.75 2.75 0 0 1-1.289-.982c-.214-.3-.331-.624-.417-.957-.08-.314-.147-.699-.224-1.142l-1.162-6.68a6.894 6.894 0 0 0-.086-.449h-.01ZM5.32 5.99l.617 3.548c.085.487.14.8.2 1.035.058.224.103.305.132.346.107.15.257.264.43.327.047.018.137.04.369.036a14.93 14.93 0 0 0 1.05-.082l8.856-.857c.48-.046.788-.077 1.022-.118.222-.04.305-.077.348-.102a.918.918 0 0 0 .36-.398c.021-.044.051-.13.069-.356.018-.236.019-.545.019-1.028 0-.512-.001-.841-.021-1.093-.02-.24-.052-.33-.075-.376a.916.916 0 0 0-.39-.402c-.044-.023-.134-.059-.373-.085a15.34 15.34 0 0 0-1.093-.054l-11.52-.34ZM7.792 16.042a.917.917 0 1 0 0 1.833.917.917 0 0 0 0-1.833Zm-2.75.917a2.75 2.75 0 1 1 5.5 0 2.75 2.75 0 0 1-5.5 0ZM16.5 16.042a.917.917 0 1 0 0 1.833.917.917 0 0 0 0-1.833Zm-2.75.917a2.75 2.75 0 1 1 5.5 0 2.75 2.75 0 0 1-5.5 0Z" fill="#424551"/></symbol><symbol fill="none" viewBox="0 0 10 8" id="icons--check" xmlns="http://www.w3.org/2000/svg"><path fill-rule="evenodd" clip-rule="evenodd" d="M9.828.195c.23.26.23.683 0 .943L3.945 7.805a.54.54 0 0 1-.832 0L.173 4.47a.731.731 0 0 1 0-.942.54.54 0 0 1 .831 0L3.53 6.39 8.996.195a.54.54 0 0 1 .832 0Z" fill="#fff"/></symbol><symbol fill="none" viewBox="0 0 20 12" id="icons--flag-usa" xmlns="http://www.w3.org/2000/svg"><g clip-path="url(#aga)"><path d="M20 0H0v12h20V0Z" fill="#B22234"/><path fill-rule="evenodd" clip-rule="evenodd" d="M20 1.745H0V.8h20v.945ZM0 2.691h20v.945H0v-.945Zm20 2.836H0v-.945h20v.945ZM0 6.473h20v.945H0v-.945Zm20 2.836H0v-.946h20v.946Zm-20 .945h20v.946H0v-.946Z" fill="#fff"/><path d="M9.12 0H0v6.462h9.12V0Z" fill="#3C3B6E"/><path d="M.76.222.975.89.408.477h.703L.542.89.76.222ZM2.274.222l.217.668-.568-.413h.702L2.057.89l.217-.668ZM3.789.222l.217.668-.569-.413h.703L3.572.89l.217-.668ZM8.333.222 8.55.89 7.98.477h.703L8.116.89l.217-.668ZM6.818.222l.217.668-.568-.413h.702L6.601.89l.217-.668ZM5.303.222 5.52.89 4.952.477h.702L5.086.89l.217-.668ZM.76 1.558l.216.668-.568-.413h.703l-.569.413.217-.668ZM2.274 1.558l.217.668-.568-.413h.702l-.568.413.217-.668ZM3.789 1.558l.217.668-.569-.413h.703l-.568.413.217-.668ZM8.333 1.558l.217.668-.569-.413h.703l-.568.413.217-.668ZM6.818 1.558l.217.668-.568-.413h.702l-.568.413.217-.668ZM5.303 1.558l.217.668-.568-.413h.702l-.568.413.217-.668ZM.76 2.893l.216.668-.568-.412h.703l-.569.412.217-.668ZM2.274 2.893l.217.668-.568-.412h.702l-.568.412.217-.668ZM3.789 2.893l.217.668-.569-.412h.703l-.568.412.217-.668ZM8.333 2.893l.217.668-.569-.412h.703l-.568.412.217-.668ZM6.818 2.893l.217.668-.568-.412h.702l-.568.412.217-.668ZM5.303 2.893l.217.668-.568-.412h.702l-.568.412.217-.668ZM.76 4.23l.216.667-.568-.412h.703l-.569.412.217-.668ZM2.274 4.23l.217.667-.568-.412h.702l-.568.412.217-.668ZM3.789 4.23l.217.667-.569-.412h.703l-.568.412.217-.668ZM8.333 4.23l.217.667-.569-.412h.703l-.568.412.217-.668ZM6.818 4.23l.217.667-.568-.412h.702l-.568.412.217-.668ZM5.303 4.23l.217.667-.568-.412h.702l-.568.412.217-.668ZM.76 5.565l.216.668-.568-.413h.703l-.569.413.217-.668ZM2.274 5.565l.217.668-.568-.413h.702l-.568.413.217-.668ZM3.789 5.565l.217.668-.569-.413h.703l-.568.413.217-.668ZM8.333 5.565l.217.668-.569-.413h.703l-.568.413.217-.668ZM6.818 5.565l.217.668-.568-.413h.702l-.568.413.217-.668ZM5.303 5.565l.217.668-.568-.413h.702l-.568.413.217-.668ZM1.514.89l.217.668-.569-.413h.703l-.568.413.217-.668ZM3.028.89l.217.668-.568-.413h.702l-.568.413.217-.668ZM4.543.89l.217.668-.568-.413h.702l-.568.413.217-.668ZM7.572.89l.217.668-.568-.413h.702l-.568.413.217-.668ZM6.058.89l.217.668-.569-.413h.703l-.569.413.218-.668ZM1.514 2.226l.217.667-.569-.412h.703l-.568.412.217-.667ZM3.028 2.226l.217.667-.568-.412h.702l-.568.412.217-.667ZM4.543 2.226l.217.667-.568-.412h.702l-.568.412.217-.667ZM7.572 2.226l.217.667-.568-.412h.702l-.568.412.217-.667ZM6.058 2.226l.217.667-.569-.412h.703l-.569.412.218-.667ZM1.514 3.561l.217.668-.569-.412h.703l-.568.412.217-.668ZM3.028 3.561l.217.668-.568-.412h.702l-.568.412.217-.668ZM4.543 3.561l.217.668-.568-.412h.702l-.568.412.217-.668ZM7.572 3.561l.217.668-.568-.412h.702l-.568.412.217-.668ZM6.058 3.561l.217.668-.569-.412h.703l-.569.412.218-.668ZM1.514 4.897l.217.668-.569-.413h.703l-.568.413.217-.668ZM3.028 4.897l.217.668-.568-.413h.702l-.568.413.217-.668ZM4.543 4.897l.217.668-.568-.413h.702l-.568.413.217-.668ZM7.572 4.897l.217.668-.568-.413h.702l-.568.413.217-.668ZM6.058 4.897l.217.668-.569-.413h.703l-.569.413.218-.668Z" fill="#fff"/></g><defs><clipPath id="aga"><path fill="#fff" d="M0 0h20v12H0z"/></clipPath></defs></symbol><symbol fill="none" viewBox="0 0 24 24" id="icons--followUs--Instagram" xmlns="http://www.w3.org/2000/svg"><path d="M21.98 7.88c-.046-1.063-.218-1.793-.464-2.426a4.88 4.88 0 0 0-1.157-1.774 4.922 4.922 0 0 0-1.77-1.153c-.637-.246-1.363-.418-2.426-.464-1.07-.051-1.41-.063-4.126-.063-2.715 0-3.055.012-4.122.059-1.062.046-1.793.218-2.426.464A4.88 4.88 0 0 0 3.715 3.68a4.924 4.924 0 0 0-1.152 1.77c-.247.637-.418 1.363-.465 2.426-.051 1.07-.063 1.41-.063 4.126 0 2.715.012 3.055.059 4.122.047 1.063.219 1.793.465 2.426a4.932 4.932 0 0 0 1.156 1.774c.5.508 1.106.902 1.77 1.152.637.247 1.364.419 2.426.465 1.067.047 1.407.059 4.122.059 2.716 0 3.056-.012 4.122-.059 1.063-.046 1.793-.218 2.426-.464a5.116 5.116 0 0 0 2.927-2.927c.246-.637.418-1.364.465-2.426.047-1.067.058-1.407.058-4.122s-.004-3.055-.05-4.122Zm-1.8 8.166c-.044.977-.208 1.504-.345 1.855a3.317 3.317 0 0 1-1.898 1.9c-.352.136-.883.3-1.856.343-1.055.047-1.371.059-4.04.059-2.668 0-2.989-.012-4.04-.059-.977-.043-1.504-.207-1.856-.344a3.077 3.077 0 0 1-1.148-.746 3.11 3.11 0 0 1-.747-1.148c-.136-.352-.3-.883-.343-1.856-.047-1.055-.059-1.372-.059-4.04 0-2.669.012-2.99.059-4.04.043-.977.207-1.504.343-1.856A3.04 3.04 0 0 1 5 4.965a3.105 3.105 0 0 1 1.15-.746c.35-.137.882-.3 1.855-.344 1.055-.046 1.372-.058 4.04-.058 2.672 0 2.989.012 4.04.058.977.043 1.504.207 1.856.344.433.16.828.414 1.148.746.332.325.586.715.747 1.15.136.35.3.882.343 1.855.047 1.055.059 1.371.059 4.04 0 2.668-.012 2.98-.059 4.036Z" fill="#17696A"/><path d="M12.037 6.864A5.139 5.139 0 0 0 6.9 12.002a5.139 5.139 0 1 0 5.138-5.138Zm0 8.47a3.333 3.333 0 1 1 .001-6.666 3.333 3.333 0 0 1 0 6.667ZM18.578 6.661a1.2 1.2 0 1 1-2.4 0 1.2 1.2 0 0 1 2.4 0Z" fill="#17696A"/></symbol><symbol fill="none" viewBox="0 0 24 24" id="icons--followUs--Instagram-hvr" xmlns="http://www.w3.org/2000/svg"><path d="M21.98 7.88c-.046-1.063-.218-1.793-.464-2.426a4.88 4.88 0 0 0-1.157-1.774 4.922 4.922 0 0 0-1.77-1.153c-.637-.246-1.363-.418-2.426-.464-1.07-.051-1.41-.063-4.126-.063-2.715 0-3.055.012-4.122.059-1.062.046-1.793.218-2.426.464A4.88 4.88 0 0 0 3.715 3.68a4.924 4.924 0 0 0-1.152 1.77c-.247.637-.418 1.363-.465 2.426-.051 1.07-.063 1.41-.063 4.126 0 2.715.012 3.055.059 4.122.047 1.063.219 1.793.465 2.426a4.932 4.932 0 0 0 1.156 1.774c.5.508 1.106.902 1.77 1.152.637.247 1.364.419 2.426.465 1.067.047 1.407.059 4.122.059 2.716 0 3.056-.012 4.122-.059 1.063-.046 1.793-.218 2.426-.464a5.116 5.116 0 0 0 2.927-2.927c.246-.637.418-1.364.465-2.426.047-1.067.058-1.407.058-4.122s-.004-3.055-.05-4.122Zm-1.8 8.166c-.044.977-.208 1.504-.345 1.855a3.317 3.317 0 0 1-1.898 1.9c-.352.136-.883.3-1.856.343-1.055.047-1.371.059-4.04.059-2.668 0-2.989-.012-4.04-.059-.977-.043-1.504-.207-1.856-.344a3.077 3.077 0 0 1-1.148-.746 3.11 3.11 0 0 1-.747-1.148c-.136-.352-.3-.883-.343-1.856-.047-1.055-.059-1.372-.059-4.04 0-2.669.012-2.99.059-4.04.043-.977.207-1.504.343-1.856A3.04 3.04 0 0 1 5 4.965a3.105 3.105 0 0 1 1.15-.746c.35-.137.882-.3 1.855-.344 1.055-.046 1.372-.058 4.04-.058 2.672 0 2.989.012 4.04.058.977.043 1.504.207 1.856.344.433.16.828.414 1.148.746.332.325.586.715.747 1.15.136.35.3.882.343 1.855.047 1.055.059 1.371.059 4.04 0 2.668-.012 2.98-.059 4.036Z" fill="#fff"/><path d="M12.037 6.864A5.139 5.139 0 0 0 6.9 12.002a5.139 5.139 0 1 0 5.138-5.138Zm0 8.47a3.333 3.333 0 1 1 .001-6.666 3.333 3.333 0 0 1 0 6.667ZM18.578 6.661a1.2 1.2 0 1 1-2.4 0 1.2 1.2 0 0 1 2.4 0Z" fill="#fff"/></symbol><symbol fill="none" viewBox="0 0 20 20" id="icons--heart" xmlns="http://www.w3.org/2000/svg"><path fill-rule="evenodd" clip-rule="evenodd" d="M10 16.59c-3.833-2.184-5.971-4.353-7.005-6.236-1.058-1.926-.965-3.549-.378-4.7 1.206-2.368 4.638-3.125 6.728-.48L10 6l.654-.827c2.09-2.644 5.522-1.887 6.729.48.587 1.152.68 2.775-.379 4.702-1.034 1.882-3.171 4.051-7.004 6.234Zm0-13.168C7.057.627 2.72 1.782 1.131 4.897c-.871 1.709-.883 3.918.402 6.26 1.275 2.32 3.815 4.77 8.062 7.117l.403.223.403-.223c4.247-2.347 6.788-4.797 8.062-7.117 1.286-2.342 1.274-4.551.403-6.26-1.588-3.115-5.927-4.27-8.868-1.475Z" fill="#424551"/></symbol><symbol fill="none" viewBox="0 0 16 16" id="icons--heart-small" xmlns="http://www.w3.org/2000/svg"><path fill-rule="evenodd" clip-rule="evenodd" d="M8 13.271C4.932 11.525 3.222 9.79 2.395 8.284c-.846-1.542-.772-2.84-.303-3.761.966-1.894 3.71-2.5 5.383-.384L8 4.8l.523-.661c1.673-2.116 4.418-1.51 5.383.384.47.921.544 2.22-.303 3.76-.826 1.507-2.537 3.242-5.603 4.989ZM8 2.737C5.645.502 2.175 1.426.904 3.917.208 5.285.2 7.052 1.228 8.925c1.019 1.857 3.052 3.817 6.449 5.694l.322.179.323-.179c3.397-1.877 5.43-3.837 6.45-5.694 1.028-1.873 1.018-3.64.321-5.008C13.823 1.426 10.353.502 8 2.737Z" fill="#787A80"/></symbol><symbol fill="none" viewBox="0 0 16 16" id="icons--heart_green" xmlns="http://www.w3.org/2000/svg"><path fill-rule="evenodd" clip-rule="evenodd" d="M8 13.271C4.932 11.525 3.222 9.79 2.395 8.284c-.846-1.542-.772-2.84-.303-3.761.966-1.894 3.71-2.5 5.383-.384L8 4.8l.523-.661c1.673-2.116 4.418-1.51 5.383.384.47.921.544 2.22-.303 3.76-.826 1.507-2.537 3.242-5.603 4.989ZM8 2.737C5.645.502 2.175 1.426.904 3.917.208 5.285.2 7.052 1.228 8.925c1.019 1.857 3.052 3.817 6.449 5.694l.322.179.323-.179c3.397-1.877 5.43-3.837 6.45-5.694 1.028-1.873 1.018-3.64.321-5.008C13.823 1.426 10.353.502 8 2.737Z" fill="#17696A"/></symbol><symbol fill="none" viewBox="0 0 130 22" id="icons--logo-header" xmlns="http://www.w3.org/2000/svg"><g clip-path="url(#aka)"><path d="M0 11.1C0 5 3.3 1.3 8.7 1.3c4.1 0 7.4 2.5 8 6.2.1.4-.2.7-.6.7h-2.6c-.3 0-.5-.2-.6-.5-.5-1.9-2.1-3.1-4.2-3.1C5.8 4.6 4 7.1 4 11.1s1.8 6.5 4.8 6.5c2.1 0 3.6-1.1 4.2-2.9.1-.3.3-.5.6-.5h2.6c.4 0 .7.4.6.7-.6 3.6-3.8 6-8 6-5.5 0-8.8-3.8-8.8-9.8ZM24.3 20.4h-2.9c-.3 0-.5-.2-.5-.5V2.6c0-.4.4-.8.8-.8h7c4.1 0 6.6 2.3 6.6 5.9 0 2.1-1 4-2.7 5-.4.2-.5.7-.3 1l3.1 5.9c.2.3-.1.7-.4.7h-3.3c-.2 0-.4-.1-.5-.3l-2.9-6c-.1-.3-.4-.4-.7-.4h-2.3c-.3 0-.5.2-.5.5V20c.1.2-.2.4-.5.4Zm.6-10.2c0 .3.2.5.5.5h3c2 0 3.1-1.1 3.1-2.9 0-1.8-1.2-2.9-3.1-2.9h-2.9c-.3 0-.5.2-.5.5v4.8h-.1ZM51.5 20.4h-11c-.4 0-.7-.3-.7-.7V2.5c0-.4.3-.7.7-.7h11c.4 0 .7.3.7.7v1.9c0 .4-.3.7-.7.7h-7.3c-.3 0-.5.2-.5.5V9c0 .3.2.5.5.5H51c.4 0 .7.3.7.7v1.7c0 .4-.3.7-.7.7h-6.8c-.3 0-.5.2-.5.5v3.8c0 .3.2.5.5.5h7.3c.4 0 .7.3.7.7V20c0 .1-.3.4-.7.4ZM67 15.9h-5.7c-.3 0-.5.2-.6.4L59.6 20c-.1.3-.3.4-.6.4h-2.6c-.4 0-.7-.4-.6-.8l6-17.4c.1-.2.3-.4.6-.4h3.7c.3 0 .5.2.6.4l6 17.4c.1.4-.2.8-.6.8h-2.9c-.3 0-.5-.2-.6-.4l-1.1-3.7c0-.2-.3-.4-.5-.4ZM62.1 13h4.1c.2 0 .3-.2.3-.4l-2.2-7h-.2l-2.2 7c-.1.2 0 .4.2.4ZM79 19.7V5.5c0-.3-.2-.5-.5-.5h-4.4c-.4 0-.8-.3-.8-.8V2.5c0-.4.3-.8.8-.8h13.6c.4 0 .8.3.8.8v1.7c0 .4-.3.8-.8.8h-4.4c-.3 0-.5.2-.5.5v14.3c0 .4-.3.7-.7.7h-2.5c-.3-.1-.6-.4-.6-.8ZM103.8 20.4h-11c-.4 0-.7-.3-.7-.7V2.5c0-.4.3-.7.7-.7h11c.4 0 .7.3.7.7v1.9c0 .4-.3.7-.7.7h-7.3c-.3 0-.5.2-.5.5V9c0 .3.2.5.5.5h6.8c.4 0 .7.3.7.7v1.7c0 .4-.3.7-.7.7h-6.8c-.3 0-.5.2-.5.5v3.8c0 .3.2.5.5.5h7.3c.4 0 .7.3.7.7V20c0 .1-.3.4-.7.4Z" fill="#1E212C"/><path d="m117.701 9.7-6.2-8.1c-.4-.4-.9-.6-1.4-.6-.5 0-1 .2-1.4.6-.7.8-.7 2 0 2.8l4.9 6.6-4.9 6.6c-.7.8-.7 2 0 2.8.4.4.9.6 1.4.6.5 0 1-.2 1.4-.6l6.2-8.1c.7-.6.7-1.8 0-2.6ZM120.344 9.7l6.2-8.1c.4-.4.9-.6 1.4-.6.5 0 1 .2 1.4.6.7.8.7 2 0 2.8l-4.9 6.6 4.9 6.6c.7.8.7 2 0 2.8-.4.4-.9.6-1.4.6-.5 0-1-.2-1.4-.6l-6.2-8.1c-.7-.6-.7-1.8 0-2.6Z" fill="#17696A"/></g><defs><clipPath id="aka"><path fill="#fff" d="M0 0h130v22H0z"/></clipPath></defs></symbol><symbol viewBox="0 0 24 24" id="icons--main-next" xmlns="http://www.w3.org/2000/svg"><path fill-rule="evenodd" clip-rule="evenodd" d="M14.793 6.793a1 1 0 0 1 1.414 0l4.5 4.5a1 1 0 0 1 0 1.414l-4.5 4.5a1 1 0 0 1-1.414-1.414L17.586 13H4a1 1 0 1 1 0-2h13.586l-2.793-2.793a1 1 0 0 1 0-1.414Z"/></symbol><symbol viewBox="0 0 24 24" id="icons--main-prev" xmlns="http://www.w3.org/2000/svg"><path fill-rule="evenodd" clip-rule="evenodd" d="M9.207 17.207a1 1 0 0 1-1.414 0l-4.5-4.5a1 1 0 0 1 0-1.414l4.5-4.5a1 1 0 0 1 1.414 1.414L6.414 11H20a1 1 0 1 1 0 2H6.414l2.793 2.793a1 1 0 0 1 0 1.414Z"/></symbol><symbol fill="none" viewBox="0 0 48 48" id="icons--prev-btn" xmlns="http://www.w3.org/2000/svg"><circle opacity=".5" cx="24" cy="24" r="24" fill="#fff"/><path fill-rule="evenodd" clip-rule="evenodd" d="M22.207 29.207a1 1 0 0 1-1.414 0l-4.5-4.5a1 1 0 0 1 0-1.414l4.5-4.5a1 1 0 0 1 1.414 1.414L19.414 23H33a1 1 0 1 1 0 2H19.414l2.793 2.793a1 1 0 0 1 0 1.414Z" fill="#424551"/></symbol><symbol fill="none" viewBox="0 0 17 16" id="icons--product-page--Cart" xmlns="http://www.w3.org/2000/svg"><path fill-rule="evenodd" clip-rule="evenodd" d="M2.594 2.006A5.015 5.015 0 0 0 2.27 2H1.167a.667.667 0 0 1 0-1.333h1.122c.142 0 .284 0 .406.01.135.01.292.033.454.106.229.102.424.266.564.474.099.147.15.298.182.43.03.117.054.257.079.398l.003.018.16.914 8.675.257c.34.01.634.018.876.045.256.028.51.081.752.21a2 2 0 0 1 .852.878c.123.247.168.502.188.759.02.242.02.536.02.876v.05c0 .319 0 .596-.018.826-.019.244-.06.486-.172.724a2 2 0 0 1-.788.867c-.225.134-.462.199-.703.241-.227.04-.503.067-.822.098l-6.489.628c-.326.031-.608.059-.844.063-.25.004-.5-.015-.752-.108a2 2 0 0 1-.937-.714 2.029 2.029 0 0 1-.303-.696c-.059-.228-.107-.508-.163-.83l-.845-4.86a5.008 5.008 0 0 0-.063-.325h-.007ZM4.37 4.358l.449 2.58c.062.354.102.58.145.752a.748.748 0 0 0 .097.252.667.667 0 0 0 .312.238c.034.012.1.029.268.026.177-.003.407-.025.764-.06l6.441-.623a10.8 10.8 0 0 0 .743-.086.746.746 0 0 0 .253-.074.667.667 0 0 0 .262-.29.746.746 0 0 0 .05-.258c.013-.172.014-.397.014-.748 0-.372 0-.612-.015-.795-.015-.175-.038-.24-.055-.273a.667.667 0 0 0-.284-.293c-.032-.017-.097-.043-.271-.062-.182-.02-.422-.027-.794-.038l-8.379-.248ZM6.167 11.667a.667.667 0 1 0 0 1.333.667.667 0 0 0 0-1.333Zm-2 .667a2 2 0 1 1 4 0 2 2 0 0 1-4 0ZM12.5 11.667a.667.667 0 1 0 0 1.333.667.667 0 0 0 0-1.333Zm-2 .667a2 2 0 1 1 4 0 2 2 0 0 1-4 0Z" fill="#fff"/></symbol><symbol fill="none" viewBox="0 0 20 20" id="icons--product-page--Facebook" xmlns="http://www.w3.org/2000/svg"><path d="M14.637.837 12.323.833c-2.6 0-4.28 1.77-4.28 4.512v2.08H5.714a.369.369 0 0 0-.363.374v3.014c0 .207.163.374.363.374h2.327v7.606c0 .206.163.373.364.373h3.037a.369.369 0 0 0 .363-.373v-7.606h2.721a.369.369 0 0 0 .364-.374l.001-3.014a.38.38 0 0 0-.106-.264.36.36 0 0 0-.258-.11h-2.722V5.662c0-.848.197-1.278 1.272-1.278h1.559c.2 0 .364-.168.364-.375V1.211a.37.37 0 0 0-.364-.374Z"/></symbol><symbol fill="none" viewBox="0 0 16 16" id="icons--product-page--Minus" xmlns="http://www.w3.org/2000/svg"><path fill-rule="evenodd" clip-rule="evenodd" d="M.668 8c0-.369.298-.667.667-.667V8.666A.667.667 0 0 1 .668 8Zm14 0v.666H1.335V7.333h13.333V8Zm0 0v.666a.667.667 0 1 0 0-1.333V8Z" fill="#17696A"/></symbol><symbol fill="none" viewBox="0 0 16 16" id="icons--product-page--Plus" xmlns="http://www.w3.org/2000/svg"><g clip-path="url(#bna)"><path fill-rule="evenodd" clip-rule="evenodd" d="M8.001.667c.368 0 .667.298.667.667v6h6a.667.667 0 1 1 0 1.333h-6v6a.667.667 0 1 1-1.333 0v-6h-6a.667.667 0 1 1 0-1.333h6v-6c0-.369.298-.667.666-.667Z" fill="#17696A"/></g><defs><clipPath id="bna"><path fill="#fff" d="M0 0h16v16H0z"/></clipPath></defs></symbol><symbol fill="none" viewBox="0 0 20 20" id="icons--product-page--Twitter" xmlns="http://www.w3.org/2000/svg"><path d="M18.75 4.81a7.419 7.419 0 0 1-2.061.542 3.483 3.483 0 0 0 1.578-1.9 7.435 7.435 0 0 1-2.281.834 3.655 3.655 0 0 0-2.62-1.086c-1.983 0-3.59 1.54-3.59 3.437 0 .269.03.532.092.783C6.885 7.277 4.24 5.908 2.47 3.828a3.301 3.301 0 0 0-.485 1.728c0 1.193.634 2.245 1.596 2.86a3.712 3.712 0 0 1-1.626-.43v.042c0 1.665 1.238 3.055 2.88 3.37-.301.078-.618.121-.946.121-.232 0-.456-.022-.676-.064.457 1.367 1.782 2.36 3.353 2.388a7.409 7.409 0 0 1-4.459 1.469c-.29 0-.575-.017-.856-.047a10.476 10.476 0 0 0 5.503 1.546c6.604 0 10.213-5.237 10.213-9.78l-.012-.444A7.01 7.01 0 0 0 18.75 4.81Z"/></symbol><symbol fill="none" viewBox="0 0 14 22" id="icons--product-page--arrow-down" xmlns="http://www.w3.org/2000/svg"><path d="M7 22 .072 12.25h13.856L7 22Z" fill="#1E212C"/></symbol><symbol fill="none" viewBox="0 0 14 22" id="icons--product-page--arrow-down_hwr" xmlns="http://www.w3.org/2000/svg"><path d="M7 22 .072 12.25h13.856L7 22Z" fill="#17696A"/></symbol><symbol fill="none" viewBox="0 0 14 22" id="icons--product-page--arrow-up" xmlns="http://www.w3.org/2000/svg"><path d="m7 0 6.928 9H.072L7 0Z" fill="#1E212C"/></symbol><symbol fill="none" viewBox="0 0 14 22" id="icons--product-page--arrow-up_hwr" xmlns="http://www.w3.org/2000/svg"><path d="m7 0 6.928 9H.072L7 0Z" fill="#17696A"/></symbol><symbol fill="none" viewBox="0 0 16 16" id="icons--product-page--hanger" xmlns="http://www.w3.org/2000/svg"><g clip-path="url(#bga)"><path d="m15.222 10.74-5.76-3.601a.632.632 0 0 0-.335-.096h-.495v-.269a2.333 2.333 0 0 0 1.697-2.242A2.332 2.332 0 0 0 8 2.203a2.332 2.332 0 0 0-2.33 2.33.632.632 0 0 0 1.265 0 1.066 1.066 0 0 1 2.13 0c0 .586-.478 1.064-1.065 1.064a.632.632 0 0 0-.632.632v.814h-.495a.632.632 0 0 0-.335.096l-5.76 3.6a1.656 1.656 0 0 0 .877 3.058h12.69a1.656 1.656 0 0 0 .877-3.058Zm-.877 1.793H1.655a.39.39 0 0 1-.207-.722l5.607-3.504h1.89l5.607 3.504a.39.39 0 0 1-.207.722Z" fill="#424551"/></g><defs><clipPath id="bga"><path fill="#fff" d="M0 0h16v16H0z"/></clipPath></defs></symbol><symbol fill="none" viewBox="0 0 16 16" id="icons--product-page--heart" xmlns="http://www.w3.org/2000/svg"><path fill-rule="evenodd" clip-rule="evenodd" d="M8 13.271C4.932 11.525 3.222 9.79 2.395 8.284c-.846-1.542-.772-2.84-.303-3.761.966-1.894 3.71-2.5 5.383-.384L8 4.8l.523-.661c1.673-2.116 4.418-1.51 5.383.384.47.921.544 2.22-.303 3.76-.826 1.507-2.537 3.242-5.603 4.989ZM8 2.737C5.645.502 2.175 1.426.904 3.917.208 5.285.2 7.052 1.228 8.925c1.019 1.857 3.052 3.817 6.449 5.694l.322.179.323-.179c3.397-1.877 5.43-3.837 6.45-5.694 1.028-1.873 1.018-3.64.321-5.008C13.823 1.426 10.353.502 8 2.737Z" fill="#17696A"/></symbol><symbol fill="none" viewBox="0 0 16 16" id="icons--product-page--heart_hwr" xmlns="http://www.w3.org/2000/svg"><path fill-rule="evenodd" clip-rule="evenodd" d="M8 13.271C4.932 11.525 3.222 9.79 2.395 8.284c-.846-1.542-.772-2.84-.303-3.761.966-1.894 3.71-2.5 5.383-.384L8 4.8l.523-.661c1.673-2.116 4.418-1.51 5.383.384.47.921.544 2.22-.303 3.76-.826 1.507-2.537 3.242-5.603 4.989ZM8 2.737C5.645.502 2.175 1.426.904 3.917.208 5.285.2 7.052 1.228 8.925c1.019 1.857 3.052 3.817 6.449 5.694l.322.179.323-.179c3.397-1.877 5.43-3.837 6.45-5.694 1.028-1.873 1.018-3.64.321-5.008C13.823 1.426 10.353.502 8 2.737Z" fill="#fff"/></symbol><symbol fill="none" viewBox="0 0 55 42" id="icons--product-page--mastercard" xmlns="http://www.w3.org/2000/svg"><path d="M53.198 41.426v.108h.101a.106.106 0 0 0 .054-.014.049.049 0 0 0 .02-.04.046.046 0 0 0-.02-.041.098.098 0 0 0-.054-.014h-.1v.001Zm.102-.076a.186.186 0 0 1 .121.035.116.116 0 0 1 .042.095.108.108 0 0 1-.034.084.166.166 0 0 1-.096.04l.135.154h-.104l-.124-.152h-.04v.152h-.087v-.408h.188Zm-.027.55a.347.347 0 0 0 .314-.208.35.35 0 0 0 0-.268.355.355 0 0 0-.181-.181.355.355 0 0 0-.268 0 .346.346 0 0 0-.11.073.35.35 0 0 0 0 .486.347.347 0 0 0 .245.1v-.003Zm0-.78a.452.452 0 0 1 .413.269.434.434 0 0 1-.096.481.442.442 0 0 1-.317.13.449.449 0 0 1-.45-.445.434.434 0 0 1 .274-.405.448.448 0 0 1 .178-.035l-.002.004Zm-41.326-1.578c0-.778.51-1.418 1.344-1.418.796 0 1.334.612 1.334 1.418 0 .806-.538 1.419-1.334 1.419-.834 0-1.344-.64-1.344-1.419Zm3.586 0v-2.215h-.963v.54c-.306-.4-.769-.65-1.4-.65-1.24 0-2.215.974-2.215 2.326 0 1.353.974 2.327 2.216 2.327.63 0 1.094-.25 1.399-.65v.538h.962v-2.216h.001Zm32.547 0c0-.778.51-1.418 1.345-1.418.797 0 1.334.612 1.334 1.418 0 .806-.537 1.419-1.334 1.419-.834 0-1.345-.64-1.345-1.419Zm3.588 0v-3.994h-.964v2.318c-.306-.399-.77-.649-1.4-.649-1.24 0-2.215.974-2.215 2.326 0 1.353.974 2.327 2.216 2.327.63 0 1.093-.25 1.399-.65v.538h.964v-2.216Zm-24.18-1.464c.621 0 1.02.39 1.122 1.075H26.31c.103-.64.491-1.075 1.178-1.075Zm.02-.863c-1.298 0-2.206.944-2.206 2.326 0 1.409.944 2.326 2.27 2.326.668 0 1.279-.166 1.816-.62l-.472-.715a2.112 2.112 0 0 1-1.288.464c-.621 0-1.186-.288-1.325-1.085h3.289c.01-.12.019-.24.019-.37-.01-1.381-.864-2.326-2.104-2.326Zm11.63 2.326c0-.779.51-1.419 1.343-1.419.797 0 1.334.612 1.334 1.419 0 .806-.537 1.418-1.334 1.418-.834 0-1.344-.64-1.344-1.418Zm3.585 0v-2.214h-.962v.54c-.307-.4-.77-.65-1.4-.65-1.241 0-2.215.974-2.215 2.326 0 1.353.973 2.327 2.215 2.327.63 0 1.093-.25 1.4-.65v.538h.962v-2.217Zm-9.026 0c0 1.344.936 2.326 2.364 2.326.667 0 1.111-.148 1.592-.528l-.463-.779c-.361.26-.741.399-1.16.399-.77-.01-1.334-.566-1.334-1.418 0-.853.565-1.409 1.334-1.419.418 0 .798.14 1.16.4l.463-.78c-.481-.38-.926-.527-1.592-.527-1.428 0-2.364.982-2.364 2.326Zm12.418-2.326c-.555 0-.917.26-1.168.649v-.537h-.954v4.429h.964v-2.483c0-.733.315-1.14.945-1.14.206-.003.41.034.602.111l.297-.908a2.047 2.047 0 0 0-.686-.12v-.002Zm-25.82.464c-.463-.306-1.102-.464-1.806-.464-1.122 0-1.845.538-1.845 1.418 0 .722.538 1.168 1.529 1.307l.455.065c.528.074.777.213.777.463 0 .343-.35.538-1.01.538-.666 0-1.148-.213-1.473-.463l-.452.75c.528.39 1.195.576 1.918.576 1.279 0 2.02-.603 2.02-1.446 0-.779-.583-1.186-1.547-1.325l-.454-.066c-.417-.054-.751-.138-.751-.435 0-.324.315-.518.843-.518.566 0 1.113.213 1.381.38l.417-.78h-.002Zm12.43-.463c-.556 0-.918.26-1.167.65v-.54h-.955v4.43h.963v-2.483c0-.733.315-1.14.945-1.14.206-.003.41.034.602.111l.297-.908a2.047 2.047 0 0 0-.686-.12Zm-8.22.11h-1.576v-1.343h-.973v1.344h-.899v.88h.899v2.02c0 1.028.399 1.64 1.538 1.64.418 0 .9-.13 1.205-.342l-.278-.825c-.288.167-.602.25-.853.25-.482 0-.639-.296-.639-.74v-2.002h1.576v-.881Zm-14.402 4.431v-2.78c0-1.047-.667-1.751-1.742-1.76-.566-.01-1.15.166-1.558.787-.305-.49-.787-.788-1.463-.788-.474 0-.936.14-1.298.658v-.547h-.964v4.429h.972V39.3c0-.769.426-1.178 1.085-1.178.64 0 .963.417.963 1.168v2.465h.974V39.3c0-.768.444-1.177 1.084-1.177.657 0 .971.417.971 1.168v2.465l.976.002Z" fill="#231F20"/><path d="M53.75 27.022v-.648h-.17l-.194.445-.194-.445h-.17v.648h.12v-.488l.183.42h.124l.182-.421v.489h.12-.001Zm-1.07 0v-.537h.215v-.11h-.551v.11h.216v.537h.12Z" fill="#F79410"/><path d="M34.578 29.801H19.98V3.567h14.598v26.234Z" fill="#FF5F00"/><path d="M20.905 16.684a16.657 16.657 0 0 1 6.372-13.117A16.61 16.61 0 0 0 16.967 0C7.754 0 .285 7.47.285 16.684c0 9.215 7.469 16.684 16.682 16.684a16.611 16.611 0 0 0 10.31-3.567 16.656 16.656 0 0 1-6.372-13.117Z" fill="#EB001B"/><path d="M54.27 16.684c0 9.215-7.468 16.684-16.681 16.684a16.616 16.616 0 0 1-10.312-3.567 16.654 16.654 0 0 0 6.373-13.117 16.654 16.654 0 0 0-6.373-13.117A16.616 16.616 0 0 1 37.588 0C46.802 0 54.27 7.47 54.27 16.684" fill="#F79E1B"/></symbol><symbol fill="none" viewBox="0 0 78 21" id="icons--product-page--paypal" xmlns="http://www.w3.org/2000/svg"><path d="M14.274 2.381C13.358 1.337 11.703.89 9.584.89H3.436a.88.88 0 0 0-.87.742L.005 17.87a.528.528 0 0 0 .522.61h3.796l.953-6.047-.03.19a.878.878 0 0 1 .867-.743h1.804c3.543 0 6.318-1.44 7.128-5.603.024-.123.045-.243.063-.36.24-1.54-.002-2.587-.834-3.535" fill="#003087"/><path d="M60.744 10.108c-.232 1.524-1.395 1.524-2.52 1.524h-.64l.448-2.845a.354.354 0 0 1 .35-.298h.294c.766 0 1.49 0 1.862.436.223.26.29.648.206 1.183Zm-.49-3.975H56.01a.591.591 0 0 0-.584.498l-1.715 10.883a.354.354 0 0 0 .35.409h2.178a.413.413 0 0 0 .407-.348l.487-3.087a.59.59 0 0 1 .583-.498h1.343c2.796 0 4.41-1.352 4.83-4.034.19-1.172.008-2.094-.54-2.74-.604-.708-1.674-1.084-3.094-1.084" fill="#009CDE"/><path d="M30.47 10.108c-.231 1.524-1.395 1.524-2.52 1.524h-.64l.449-2.845a.354.354 0 0 1 .349-.298h.294c.766 0 1.49 0 1.862.436.224.261.291.648.207 1.183Zm-.489-3.975h-4.245a.59.59 0 0 0-.582.498l-1.716 10.883a.354.354 0 0 0 .35.409h2.026a.59.59 0 0 0 .582-.498l.464-2.936a.59.59 0 0 1 .582-.498h1.343c2.797 0 4.41-1.353 4.831-4.035.19-1.172.008-2.094-.54-2.739-.605-.71-1.674-1.085-3.095-1.085Zm9.854 7.882c-.197 1.162-1.118 1.942-2.294 1.942-.59 0-1.061-.19-1.364-.55-.301-.355-.414-.862-.319-1.427.183-1.15 1.12-1.955 2.278-1.955.577 0 1.045.191 1.355.553.311.366.434.876.344 1.438Zm2.833-3.956h-2.032a.354.354 0 0 0-.35.3l-.09.567-.142-.206c-.44-.638-1.42-.852-2.4-.852-2.246 0-4.164 1.702-4.537 4.088-.194 1.191.081 2.329.757 3.123.62.73 1.505 1.033 2.56 1.033 1.81 0 2.813-1.162 2.813-1.162l-.09.565a.354.354 0 0 0 .349.409h1.83a.59.59 0 0 0 .583-.498l1.099-6.958a.354.354 0 0 0-.35-.409" fill="#003087"/><path d="M70.108 14.015c-.197 1.162-1.118 1.942-2.294 1.942-.59 0-1.062-.19-1.365-.55-.301-.355-.414-.862-.319-1.427.183-1.15 1.12-1.955 2.278-1.955.577 0 1.045.191 1.355.553.311.366.434.876.345 1.438Zm2.832-3.956h-2.032a.354.354 0 0 0-.35.3l-.09.567-.142-.206c-.44-.638-1.42-.852-2.4-.852-2.245 0-4.163 1.702-4.537 4.088-.194 1.191.082 2.329.757 3.123.62.73 1.505 1.033 2.56 1.033 1.81 0 2.814-1.162 2.814-1.162l-.09.565a.355.355 0 0 0 .2.376.352.352 0 0 0 .148.033h1.83a.59.59 0 0 0 .583-.498l1.099-6.958a.354.354 0 0 0-.35-.409" fill="#009CDE"/><path d="M53.494 10.06h-2.043a.587.587 0 0 0-.487.258l-2.819 4.15-1.195-3.988a.59.59 0 0 0-.565-.421h-2.008a.354.354 0 0 0-.335.468l2.25 6.603-2.116 2.986a.354.354 0 0 0 .289.558h2.041a.59.59 0 0 0 .484-.254l6.794-9.805a.354.354 0 0 0-.29-.556Z" fill="#003087"/><path d="m75.337 6.433-1.743 11.082a.353.353 0 0 0 .35.409h1.752a.59.59 0 0 0 .582-.498l1.718-10.884a.353.353 0 0 0-.35-.409h-1.96a.353.353 0 0 0-.35.299" fill="#009CDE"/><path d="M14.274 2.381C13.358 1.337 11.703.89 9.584.89H3.436a.88.88 0 0 0-.87.742L.005 17.87a.528.528 0 0 0 .522.61h3.796l.953-6.047-.03.19a.878.878 0 0 1 .867-.743h1.804c3.543 0 6.318-1.44 7.128-5.603.024-.123.045-.243.063-.36.24-1.54-.002-2.587-.834-3.535" fill="#003087"/><path d="M6.302 5.936a.77.77 0 0 1 .76-.65h4.82c.57 0 1.103.038 1.59.116.266.043.529.101.788.176.294.083.578.196.849.338.242-1.54-.002-2.586-.834-3.535C13.358 1.337 11.703.89 9.585.89h-6.15a.88.88 0 0 0-.868.742L.007 17.868a.528.528 0 0 0 .52.61h3.797l.953-6.047 1.025-6.495Z" fill="#003087"/><path d="M15.108 5.916c-.018.12-.04.24-.063.36-.81 4.163-3.585 5.603-7.128 5.603H6.113a.876.876 0 0 0-.866.742l-.924 5.857-.263 1.662a.462.462 0 0 0 .457.534h3.2a.77.77 0 0 0 .76-.65l.03-.163.604-3.822.038-.211a.77.77 0 0 1 .761-.65h.479c3.1 0 5.527-1.258 6.236-4.901.295-1.521.142-2.793-.64-3.685a3.055 3.055 0 0 0-.877-.676Z" fill="#009CDE"/><path d="M14.259 5.579a6.77 6.77 0 0 0-.789-.175 9.94 9.94 0 0 0-1.59-.117H7.06a.768.768 0 0 0-.76.65l-1.024 6.496-.03.19a.877.877 0 0 1 .866-.744h1.804c3.544 0 6.318-1.439 7.129-5.602.024-.124.044-.243.063-.36a4.378 4.378 0 0 0-.85-.339" fill="#012169"/></symbol><symbol fill="none" viewBox="0 0 20 20" id="icons--product-page--pinterest" xmlns="http://www.w3.org/2000/svg"><path d="M10.251.833C5.191.833 2.5 4.053 2.5 7.564c0 1.628.916 3.66 2.383 4.303.419.188.363-.04.723-1.408a.323.323 0 0 0-.078-.319c-2.097-2.408-.41-7.36 4.424-7.36 6.995 0 5.688 9.612 1.217 9.612-1.152 0-2.011-.899-1.74-2.01.33-1.324.974-2.747.974-3.701 0-2.405-3.607-2.048-3.607 1.138 0 .985.35 1.65.35 1.65L5.77 14.994c-.364 1.473.05 3.857.086 4.062.022.113.15.15.221.056.115-.149 1.518-2.136 1.911-3.573.143-.524.73-2.647.73-2.647.387.693 1.502 1.274 2.69 1.274 3.537 0 6.092-3.086 6.092-6.916C17.488 3.58 14.324.833 10.251.833Z"/></symbol><symbol fill="none" viewBox="0 0 12 7" id="icons--product-page--select-icon" xmlns="http://www.w3.org/2000/svg"><path fill-rule="evenodd" clip-rule="evenodd" d="M11.137.528c.26.26.26.683 0 .943L6.47 6.138a.667.667 0 0 1-.943 0L.861 1.47a.667.667 0 0 1 .942-.943L6 4.724 10.194.528c.26-.26.682-.26.943 0Z" fill="#424551"/></symbol><symbol fill="none" viewBox="0 0 72 24" id="icons--product-page--visa" xmlns="http://www.w3.org/2000/svg"><path d="M30.827 22.685h-5.803L28.651.398h5.803l-3.627 22.287ZM20.143.398l-5.532 15.33-.654-3.302v.001L12.005 2.405S11.769.398 9.252.398H.107L0 .776s2.797.581 6.07 2.547l5.04 19.363h6.046L26.388.398h-6.245ZM65.78 22.685h5.328L66.464.398H61.8c-2.154 0-2.679 1.66-2.679 1.66l-8.654 20.627h6.05l1.209-3.31h7.376l.68 3.31ZM59.397 14.8l3.048-8.34 1.716 8.34h-4.764ZM50.92 5.758 51.75.972S49.194 0 46.531 0c-2.88 0-9.718 1.258-9.718 7.378 0 5.758 8.026 5.83 8.026 8.854 0 3.024-7.199 2.482-9.575.575l-.862 5.004s2.59 1.258 6.55 1.258c3.959 0 9.932-2.05 9.932-7.63 0-5.794-8.097-6.334-8.097-8.853 0-2.52 5.651-2.197 8.134-.828Z" fill="#2566AF"/><path d="M13.957 12.427 12.005 2.404S11.769.397 9.252.397H.107L0 .775s4.395.91 8.611 4.324c4.032 3.262 5.346 7.328 5.346 7.328Z" fill="#E6A540"/></symbol><symbol fill="none" viewBox="0 0 16 16" id="icons--search-input" xmlns="http://www.w3.org/2000/svg"><g clip-path="url(#apa)"><path fill-rule="evenodd" clip-rule="evenodd" d="M7.25 2.166a5.083 5.083 0 1 0 0 10.167 5.083 5.083 0 0 0 0-10.167ZM.835 7.25a6.417 6.417 0 1 1 11.399 4.044l2.739 2.734a.667.667 0 1 1-.942.944l-2.74-2.736A6.417 6.417 0 0 1 .834 7.25Z" fill="#424551"/></g><defs><clipPath id="apa"><path fill="#fff" d="M0 0h16v16H0z"/></clipPath></defs></symbol><symbol fill="none" viewBox="0 0 16 16" id="icons--search-input_active" xmlns="http://www.w3.org/2000/svg"><g clip-path="url(#aqa)"><path fill-rule="evenodd" clip-rule="evenodd" d="M7.25 2.166a5.083 5.083 0 1 0 0 10.167 5.083 5.083 0 0 0 0-10.167ZM.835 7.25a6.417 6.417 0 1 1 11.399 4.044l2.739 2.734a.667.667 0 1 1-.942.944l-2.74-2.736A6.417 6.417 0 0 1 .834 7.25Z" fill="#fff"/></g><defs><clipPath id="aqa"><path fill="#fff" d="M0 0h16v16H0z"/></clipPath></defs></symbol><symbol viewBox="0 0 16 16" id="icons--social--Facebook" xmlns="http://www.w3.org/2000/svg"><path d="M11.708.67 9.856.665c-2.08 0-3.424 1.417-3.424 3.61V5.94H4.57a.295.295 0 0 0-.29.299V8.65c0 .165.13.3.29.3h1.862v6.084c0 .165.13.299.291.299h2.429c.16 0 .291-.134.291-.3V8.95h2.177c.16 0 .291-.134.291-.299V6.24c0-.08-.03-.155-.084-.212a.287.287 0 0 0-.206-.087H9.443V4.529c0-.678.157-1.022 1.017-1.022h1.248c.16 0 .29-.135.29-.3V.968a.295.295 0 0 0-.29-.299Z"/></symbol><symbol viewBox="0 0 16 16" id="icons--social--Instagram" xmlns="http://www.w3.org/2000/svg"><path d="M14.654 5.254c-.031-.708-.146-1.195-.31-1.618-.169-.448-.43-.849-.77-1.182a3.281 3.281 0 0 0-1.18-.768c-.425-.164-.91-.28-1.618-.31-.714-.034-.94-.042-2.75-.042s-2.037.008-2.749.04c-.708.03-1.195.145-1.617.309-.448.17-.85.43-1.183.771a3.283 3.283 0 0 0-.768 1.18c-.164.425-.279.909-.31 1.617-.034.714-.042.94-.042 2.751 0 1.81.008 2.037.04 2.748.03.708.145 1.195.31 1.617.169.448.432.85.77 1.183.334.338.738.602 1.18.768.425.164.91.279 1.618.31.71.031.938.04 2.748.04 1.81 0 2.037-.008 2.748-.04.708-.031 1.195-.146 1.617-.31a3.41 3.41 0 0 0 1.951-1.95c.164-.425.279-.91.31-1.618.031-.711.04-.938.04-2.748 0-1.81-.004-2.037-.035-2.748Zm-1.2 5.444c-.03.651-.139 1.003-.23 1.237a2.211 2.211 0 0 1-1.266 1.266c-.234.091-.588.2-1.237.23-.703.03-.914.038-2.693.038s-1.993-.008-2.693-.039c-.651-.028-1.003-.138-1.237-.23a2.051 2.051 0 0 1-.766-.497 2.073 2.073 0 0 1-.498-.765c-.09-.235-.2-.589-.229-1.238-.031-.703-.039-.914-.039-2.693s.008-1.992.04-2.693c.028-.651.137-1.003.228-1.237.107-.29.276-.552.5-.766a2.07 2.07 0 0 1 .766-.498c.235-.09.589-.2 1.237-.229.704-.031.915-.039 2.694-.039 1.781 0 1.992.008 2.693.04.651.028 1.003.137 1.237.228.29.107.552.276.766.498.221.216.39.477.497.766.091.234.2.588.23 1.237.03.703.039.914.039 2.693 0 1.78-.008 1.988-.04 2.69Z"/><path d="M8.025 4.577a3.426 3.426 0 1 0 .002 6.852 3.426 3.426 0 0 0-.002-6.852Zm0 5.647a2.222 2.222 0 1 1 .001-4.445 2.222 2.222 0 0 1 0 4.445ZM12.386 4.441a.8.8 0 1 1-1.6 0 .8.8 0 0 1 1.6 0Z"/></symbol><symbol viewBox="0 0 16 16" id="icons--social--Twitter" xmlns="http://www.w3.org/2000/svg"><path d="M15 3.849a5.935 5.935 0 0 1-1.65.433 2.786 2.786 0 0 0 1.263-1.52 5.948 5.948 0 0 1-1.825.667 2.924 2.924 0 0 0-2.096-.868C9.106 2.56 7.82 3.79 7.82 5.31c0 .215.026.425.075.626-2.387-.114-4.503-1.21-5.92-2.873a2.641 2.641 0 0 0-.388 1.382c0 .954.507 1.796 1.277 2.289a2.97 2.97 0 0 1-1.3-.345v.034c0 1.332.99 2.444 2.303 2.697a3.03 3.03 0 0 1-.757.096c-.185 0-.365-.018-.54-.051.365 1.093 1.425 1.888 2.682 1.91a5.926 5.926 0 0 1-3.567 1.175A6.37 6.37 0 0 1 1 12.212a8.382 8.382 0 0 0 4.402 1.237c5.283 0 8.171-4.19 8.171-7.823l-.01-.356A5.608 5.608 0 0 0 15 3.849Z"/></symbol><symbol viewBox="0 0 16 16" id="icons--social--YouTube" xmlns="http://www.w3.org/2000/svg"><path fill-rule="evenodd" clip-rule="evenodd" d="M14.26 2.743a2.004 2.004 0 0 1 1.41 1.41c.343 1.252.33 3.862.33 3.862s0 2.596-.33 3.848a2.005 2.005 0 0 1-1.41 1.41c-1.252.33-6.26.33-6.26.33s-4.995 0-6.26-.343a2.005 2.005 0 0 1-1.41-1.41C0 10.611 0 8.002 0 8.002s0-2.597.33-3.849A2.046 2.046 0 0 1 1.74 2.73C2.992 2.4 8 2.4 8 2.4s5.008 0 6.26.343Zm-3.69 5.259L6.405 10.4V5.603l4.165 2.399Z"/></symbol><symbol viewBox="0 0 16 16" id="icons--social--pinterest" xmlns="http://www.w3.org/2000/svg"><path d="M8.2.666C4.153.666 2 3.243 2 6.051c0 1.303.733 2.927 1.907 3.443.334.15.29-.033.578-1.127a.258.258 0 0 0-.063-.255c-1.677-1.927-.327-5.888 3.54-5.888 5.595 0 4.55 7.689.973 7.689-.922 0-1.609-.719-1.391-1.608.263-1.06.779-2.198.779-2.96 0-1.925-2.887-1.64-2.887.91 0 .787.281 1.32.281 1.32s-.929 3.724-1.1 4.42c-.293 1.179.039 3.086.067 3.25.018.09.12.12.178.045.091-.12 1.214-1.71 1.528-2.859l.584-2.117c.31.555 1.202 1.02 2.153 1.02C11.956 11.333 14 8.863 14 5.8 13.99 2.864 11.459.666 8.2.666Z"/></symbol><symbol fill="none" viewBox="0 0 14 14" id="icons--star-small" xmlns="http://www.w3.org/2000/svg"><path fill-rule="evenodd" clip-rule="evenodd" d="M5.933 1.284c.405-.935 1.73-.935 2.136 0L9.295 4.11l3.067.292c1.014.097 1.424 1.358.66 2.032l-2.31 2.04.67 3.007c.222.994-.85 1.774-1.728 1.256L7.001 11.17l-2.654 1.567c-.877.518-1.95-.262-1.728-1.256l.67-3.008-2.31-2.04c-.763-.673-.354-1.934.66-2.03l3.068-.293 1.226-2.827Z" fill="#F89828"/></symbol><symbol fill="none" viewBox="0 0 14 13" id="icons--star-small_transprnt" xmlns="http://www.w3.org/2000/svg"><path fill-rule="evenodd" clip-rule="evenodd" d="M5.933 1.284c.405-.935 1.73-.935 2.136 0L9.295 4.11l3.067.292c1.014.097 1.424 1.358.66 2.032l-2.31 2.04.67 3.007c.222.994-.85 1.774-1.728 1.256L7.001 11.17l-2.654 1.567c-.877.518-1.95-.262-1.728-1.256l.67-3.008-2.31-2.04c-.763-.673-.354-1.934.66-2.03l3.068-.293 1.226-2.827Zm2.294 3.29L7 1.747 5.775 4.574a1.164 1.164 0 0 1-.958.696l-3.067.292 2.31 2.04c.317.28.457.712.365 1.125l-.67 3.008L6.41 10.17a1.164 1.164 0 0 1 1.183 0l2.654 1.566-.67-3.008a1.164 1.164 0 0 1 .366-1.125l2.31-2.04-3.068-.292a1.164 1.164 0 0 1-.957-.696Z" fill="#B3B7BC"/></symbol><symbol fill="none" viewBox="0 0 16 17" id="icons--women-clothes--Cross" xmlns="http://www.w3.org/2000/svg"><path fill-rule="evenodd" clip-rule="evenodd" d="M2.861 3.362c.26-.26.683-.26.943 0L8 7.558l4.196-4.196a.667.667 0 0 1 .942.943L8.942 8.5l4.195 4.196a.667.667 0 1 1-.942.942L7.999 9.443l-4.195 4.195a.667.667 0 0 1-.943-.942L7.057 8.5 2.86 4.305a.667.667 0 0 1 0-.943Z" fill="#9A9CA5"/></symbol><symbol fill="none" viewBox="0 0 16 17" id="icons--women-clothes--Cross-main" xmlns="http://www.w3.org/2000/svg"><path fill-rule="evenodd" clip-rule="evenodd" d="M2.861 3.362c.26-.26.683-.26.943 0L8 7.558l4.196-4.196a.667.667 0 0 1 .942.943L8.942 8.5l4.195 4.196a.667.667 0 1 1-.942.942L7.999 9.443l-4.195 4.195a.667.667 0 0 1-.943-.942L7.057 8.5 2.86 4.305a.667.667 0 0 1 0-.943Z" fill="#424551"/></symbol><symbol fill="none" viewBox="0 0 16 17" id="icons--women-clothes--Home" xmlns="http://www.w3.org/2000/svg"><path fill-rule="evenodd" clip-rule="evenodd" d="M8.523 3.28a2 2 0 0 0-1.045 0c-.356.097-.702.35-1.687 1.117L4.057 5.745c-.634.493-.847.666-.998.87a2 2 0 0 0-.318.65c-.068.244-.074.518-.074 1.321V13c0 .513.008.622.03.693.064.213.23.38.444.445.07.021.18.028.693.028h.533A.667.667 0 0 0 5 13.531V11.5a3 3 0 0 1 6 0v1.916c0 .086.001.104.002.116.016.343.29.617.633.633l.116.001h.416c.514 0 .623-.007.694-.028a.667.667 0 0 0 .444-.445c.022-.07.03-.18.03-.693V8.586c0-.803-.007-1.077-.075-1.321a2.002 2.002 0 0 0-.318-.65c-.15-.204-.363-.377-.998-.87l-1.733-1.348C9.225 3.63 8.88 3.377 8.523 3.28ZM7.13 1.995a3.333 3.333 0 0 1 1.742 0c.649.175 1.218.619 2.044 1.262l.114.088 1.733 1.348.07.055c.537.417.908.705 1.181 1.075.241.326.42.693.53 1.083.124.443.124.912.123 1.592v4.587c.001.38.001.71-.086.996a2 2 0 0 1-1.333 1.334c-.287.087-.616.086-.997.086h-.514c-.064 0-.118 0-.168-.003a2 2 0 0 1-1.902-2.067V11.5a1.667 1.667 0 0 0-3.333 0v1.93c0 .064 0 .118-.002.168a2 2 0 0 1-1.9 1.9c-.05.002-.104.002-.167.002H3.75c-.38 0-.71 0-.996-.086A2 2 0 0 1 1.42 14.08c-.087-.287-.086-.616-.086-.996V8.496c0-.679 0-1.148.123-1.59.11-.391.29-.758.53-1.084.274-.37.645-.658 1.18-1.075l.072-.055 1.733-1.348.113-.088c.826-.643 1.396-1.087 2.045-1.262Z" fill="#424551"/></symbol><symbol fill="none" viewBox="0 0 7 11" id="icons--women-clothes--arrow" xmlns="http://www.w3.org/2000/svg"><path fill-rule="evenodd" clip-rule="evenodd" d="M.53.362c.26-.26.682-.26.942 0L6.14 5.03c.26.26.26.682 0 .943l-4.667 4.666a.667.667 0 0 1-.943-.942L4.725 5.5.529 1.305a.667.667 0 0 1 0-.943Z" fill="#9A9CA5"/></symbol><symbol fill="none" viewBox="0 0 18 12" id="icons--women-clothes--arrow-long" xmlns="http://www.w3.org/2000/svg"><path fill-rule="evenodd" clip-rule="evenodd" d="M11.793.793a1 1 0 0 1 1.414 0l4.5 4.5a1 1 0 0 1 0 1.414l-4.5 4.5a1 1 0 0 1-1.414-1.414L14.586 7H1a1 1 0 0 1 0-2h13.586l-2.793-2.793a1 1 0 0 1 0-1.414Z" fill="#424551"/></symbol><symbol fill="none" viewBox="0 0 18 12" id="icons--women-clothes--arrow-long_hwr" xmlns="http://www.w3.org/2000/svg"><path fill-rule="evenodd" clip-rule="evenodd" d="M11.793.793a1 1 0 0 1 1.414 0l4.5 4.5a1 1 0 0 1 0 1.414l-4.5 4.5a1 1 0 0 1-1.414-1.414L14.586 7H1a1 1 0 0 1 0-2h13.586l-2.793-2.793a1 1 0 0 1 0-1.414Z" fill="#17696A"/></symbol><symbol fill="none" viewBox="0 0 16 17" id="icons--women-clothes--checked" xmlns="http://www.w3.org/2000/svg"><rect x=".5" y="1" width="15" height="15" rx="2.5" fill="#17696A" stroke="#17696A"/><path fill-rule="evenodd" clip-rule="evenodd" d="M12.828 4.695c.23.26.23.683 0 .943l-5.883 6.667a.54.54 0 0 1-.832 0L3.173 8.97a.731.731 0 0 1 0-.942.54.54 0 0 1 .831 0L6.53 10.89l5.467-6.195a.54.54 0 0 1 .832 0Z" fill="#fff"/></symbol><symbol fill="none" viewBox="0 0 16 16" id="icons--women-clothes--filter2" xmlns="http://www.w3.org/2000/svg"><g clip-path="url(#cca)" fill-rule="evenodd" clip-rule="evenodd" fill="#fff"><path d="M11.666 6.333c.368 0 .667.298.667.667v7.5a.667.667 0 0 1-1.334 0V7c0-.369.299-.667.667-.667ZM11.666.833c.368 0 .667.298.667.667v2a.667.667 0 0 1-1.334 0v-2c0-.369.299-.667.667-.667Z"/><path d="M8 4.833a2 2 0 0 1 2-2h3.333a2 2 0 0 1 2 2v.833a2 2 0 0 1-2 2H9.999a2 2 0 0 1-2-2v-.833Zm2-.667a.667.667 0 0 0-.667.667v.833c0 .369.298.667.666.667h3.334a.667.667 0 0 0 .666-.667v-.833a.667.667 0 0 0-.666-.667H9.999ZM4.333 11.833c.368 0 .666.299.666.667v2a.667.667 0 0 1-1.333 0v-2c0-.368.298-.667.667-.667ZM4.333.833c.368 0 .666.298.666.667V9a.667.667 0 0 1-1.333 0V1.5c0-.369.298-.667.667-.667Z"/><path d="M.666 10.333a2 2 0 0 1 2-2h3.333a2 2 0 0 1 2 2v.833a2 2 0 0 1-2 2H2.666a2 2 0 0 1-2-2v-.833Zm2-.667a.667.667 0 0 0-.667.667v.833c0 .368.299.667.667.667h3.333a.667.667 0 0 0 .667-.667v-.833a.667.667 0 0 0-.667-.667H2.666Z"/></g><defs><clipPath id="cca"><path fill="#fff" d="M0 0h16v16H0z"/></clipPath></defs></symbol><symbol fill="none" viewBox="0 0 16 2" id="icons--women-clothes--minus" xmlns="http://www.w3.org/2000/svg"><path fill-rule="evenodd" clip-rule="evenodd" d="M.666 1c0-.369.298-.667.667-.667V1.666A.667.667 0 0 1 .666 1Zm14 0v.666H1.333V.333h13.333V1Zm0 0v.666a.667.667 0 1 0 0-1.333V1Z" fill="#17696A"/></symbol><symbol fill="none" viewBox="0 0 16 16" id="icons--women-clothes--plus" xmlns="http://www.w3.org/2000/svg"><g clip-path="url(#cfa)"><path fill-rule="evenodd" clip-rule="evenodd" d="M8 .667c.368 0 .666.298.666.667v6h6a.667.667 0 1 1 0 1.333h-6v6a.667.667 0 1 1-1.333 0v-6h-6a.667.667 0 1 1 0-1.333h6v-6c0-.369.298-.667.666-.667Z" fill="#17696A"/></g><defs><clipPath id="cfa"><path fill="#fff" d="M0 0h16v16H0z"/></clipPath></defs></symbol><symbol fill="none" viewBox="0 0 16 16" id="icons--women-clothes--search" xmlns="http://www.w3.org/2000/svg"><g clip-path="url(#cga)"><path fill-rule="evenodd" clip-rule="evenodd" d="M7.25 2.166a5.083 5.083 0 1 0 0 10.167 5.083 5.083 0 0 0 0-10.167ZM.835 7.25a6.417 6.417 0 1 1 11.399 4.044l2.739 2.734a.667.667 0 1 1-.942.944l-2.74-2.736A6.417 6.417 0 0 1 .834 7.25Z" fill="#9A9CA5"/></g><defs><clipPath id="cga"><path fill="#fff" d="M0 0h16v16H0z"/></clipPath></defs></symbol><symbol fill="none" viewBox="0 0 12 7" id="icons--women-clothes--select-arrow" xmlns="http://www.w3.org/2000/svg"><path fill-rule="evenodd" clip-rule="evenodd" d="M11.139.528c.26.26.26.683 0 .943L6.472 6.138a.667.667 0 0 1-.943 0L.863 1.47a.667.667 0 0 1 .942-.943l4.196 4.196L10.196.528c.26-.26.682-.26.943 0Z" fill="#424551"/></symbol><symbol fill="none" viewBox="0 0 162 48" id="images--store-app--app-store" xmlns="http://www.w3.org/2000/svg"><path d="M156.322 48H5.678A5.676 5.676 0 0 1 0 42.324V5.676A5.676 5.676 0 0 1 5.678 0h150.644A5.675 5.675 0 0 1 162 5.676v36.648A5.675 5.675 0 0 1 156.322 48Z" fill="#424551"/><path d="M160.938 42.324a4.58 4.58 0 0 1-4.59 4.587H5.705c-2.54 0-4.615-2.047-4.615-4.587V5.676a4.625 4.625 0 0 1 4.615-4.614h150.643a4.609 4.609 0 0 1 4.616 4.614l-.026 36.648Z" fill="#424551"/><path d="M36.166 23.741c-.026-3.861 3.163-5.753 3.318-5.831-1.814-2.644-4.614-3.007-5.625-3.033-2.36-.259-4.64 1.426-5.86 1.426-1.218 0-3.084-1.4-5.08-1.348-2.567.052-4.978 1.53-6.3 3.836-2.723 4.717-.7 11.637 1.918 15.421 1.296 1.866 2.826 3.94 4.822 3.862 1.944-.078 2.67-1.244 5.03-1.244 2.333 0 3.007 1.244 5.055 1.192 2.1-.026 3.422-1.866 4.666-3.758 1.504-2.125 2.1-4.25 2.126-4.354 0 0-4.018-1.53-4.07-6.169Zm-3.837-11.378c1.037-1.322 1.763-3.084 1.556-4.898-1.53.078-3.422 1.062-4.511 2.332-.96 1.14-1.841 2.981-1.608 4.717 1.711.13 3.474-.855 4.563-2.15Z" fill="#fff"/><path d="M156.322 0h-80.69l31.607 48h49.083A5.675 5.675 0 0 0 162 42.324V5.676A5.675 5.675 0 0 0 156.322 0Z" fill="url(#cia)"/><path d="M64.432 37.815h-2.723l-1.503-4.691H55.02l-1.426 4.69h-2.645l5.134-15.965h3.19l5.159 15.966Zm-4.667-6.661-1.348-4.173c-.156-.415-.415-1.426-.804-3.007h-.052c-.156.674-.415 1.685-.752 3.007l-1.322 4.173h4.278Zm17.864.751c0 1.97-.544 3.5-1.607 4.64-.96 1.01-2.126 1.529-3.552 1.529-1.53 0-2.62-.544-3.293-1.633v6.039h-2.541V30.065c0-1.218-.026-2.488-.104-3.784h2.256l.156 1.814h.051c.856-1.373 2.152-2.073 3.89-2.073 1.348 0 2.489.544 3.396 1.607.908 1.114 1.348 2.54 1.348 4.276Zm-2.592.104c0-1.114-.26-2.047-.752-2.773-.545-.752-1.297-1.14-2.23-1.14-.622 0-1.193.207-1.711.621-.519.415-.856.96-1.012 1.66-.077.258-.103.518-.13.777v1.918c0 .829.26 1.555.779 2.125.518.57 1.192.855 1.996.855.96 0 1.711-.363 2.256-1.114.544-.726.804-1.71.804-2.929Zm15.868-.104c0 1.97-.545 3.5-1.608 4.64-.96 1.01-2.126 1.529-3.552 1.529-1.53 0-2.619-.544-3.293-1.633v6.039h-2.567V30.065c0-1.218-.026-2.488-.104-3.784h2.256l.156 1.814h.052c.855-1.373 2.152-2.073 3.889-2.073 1.348 0 2.489.544 3.397 1.607.907 1.114 1.374 2.54 1.374 4.276Zm-2.619.104c0-1.114-.26-2.047-.752-2.773-.544-.752-1.296-1.14-2.23-1.14-.622 0-1.192.207-1.711.621-.519.415-.856.96-1.011 1.66-.078.31-.13.57-.13.777v1.918c0 .829.26 1.555.778 2.125.519.57 1.193.855 1.996.855.96 0 1.712-.363 2.256-1.114.545-.726.804-1.71.804-2.929Zm17.424 1.322c0 1.348-.467 2.462-1.426 3.317-1.037.933-2.489 1.4-4.356 1.4-1.712 0-3.086-.337-4.149-.985l.597-2.125c1.114.674 2.36.985 3.707.985.96 0 1.712-.208 2.256-.648.545-.44.804-1.011.804-1.737 0-.648-.233-1.192-.674-1.633-.441-.44-1.167-.855-2.204-1.244-2.8-1.036-4.2-2.566-4.2-4.587 0-1.322.492-2.385 1.477-3.214.986-.83 2.308-1.244 3.916-1.244 1.452 0 2.67.26 3.629.752l-.648 2.073c-.907-.492-1.918-.726-3.059-.726-.908 0-1.608.233-2.126.674-.415.389-.649.881-.649 1.452 0 .622.234 1.166.726 1.555.415.388 1.193.777 2.334 1.244 1.374.544 2.385 1.192 3.034 1.944.7.725 1.011 1.632 1.011 2.747Zm8.478-5.106h-2.826v5.598c0 1.426.493 2.126 1.504 2.126.467 0 .83-.026 1.141-.13l.078 1.944c-.493.181-1.167.285-1.997.285-1.011 0-1.789-.311-2.359-.933-.571-.622-.856-1.659-.856-3.11v-5.806h-1.685v-1.918h1.685v-2.1l2.515-.75v2.876h2.826l-.026 1.918Zm12.705 3.732c0 1.763-.518 3.214-1.53 4.354-1.063 1.167-2.463 1.763-4.226 1.763-1.685 0-3.034-.57-4.045-1.685-1.011-1.114-1.504-2.54-1.504-4.25 0-1.789.519-3.24 1.556-4.38 1.037-1.14 2.437-1.711 4.175-1.711 1.685 0 3.059.57 4.07 1.685 1.012 1.088 1.504 2.514 1.504 4.224Zm-2.644.052c0-1.063-.234-1.97-.675-2.721-.544-.907-1.296-1.374-2.307-1.374-1.037 0-1.815.466-2.36 1.374-.466.751-.674 1.684-.674 2.773 0 1.063.233 1.97.674 2.721.545.907 1.323 1.374 2.334 1.374.985 0 1.737-.467 2.307-1.4.467-.777.701-1.684.701-2.747Zm10.967-3.473a4.22 4.22 0 0 0-.804-.078c-.907 0-1.607.337-2.074 1.011-.415.596-.648 1.348-.648 2.28v6.04h-2.567v-7.88c0-1.217-.026-2.41-.078-3.628h2.23l.104 2.203h.078c.259-.751.7-1.374 1.27-1.814.545-.389 1.193-.622 1.841-.622.233 0 .441.026.648.052v2.436Zm11.46 2.98c0 .39-.025.778-.103 1.167h-7.675c.026 1.14.389 2.022 1.115 2.618.648.544 1.478.803 2.515.803 1.141 0 2.178-.181 3.111-.544l.389 1.762c-1.089.467-2.385.7-3.863.7-1.789 0-3.189-.518-4.2-1.581-1.012-1.063-1.53-2.462-1.53-4.225 0-1.736.467-3.188 1.426-4.328.985-1.244 2.333-1.84 4.019-1.84 1.659 0 2.93.622 3.759 1.84.7.985 1.037 2.177 1.037 3.629Zm-2.437-.673c.026-.752-.155-1.426-.492-1.97-.441-.726-1.115-1.063-2.049-1.063-.829 0-1.53.337-2.048 1.037-.415.544-.674 1.218-.752 1.996h5.341ZM54.294 16.199c-.7 0-1.322-.026-1.84-.104V8.372a15.387 15.387 0 0 1 2.177-.156c2.93 0 4.278 1.452 4.278 3.81 0 2.696-1.607 4.173-4.615 4.173Zm.415-6.998a5.73 5.73 0 0 0-1.011.078v5.857c.155.026.44.026.855.026 1.919 0 3.008-1.088 3.008-3.136 0-1.814-.985-2.825-2.852-2.825Zm8.4 7.05c-1.659 0-2.722-1.244-2.722-2.903 0-1.736 1.09-2.98 2.826-2.98 1.634 0 2.723 1.166 2.723 2.902 0 1.737-1.141 2.98-2.826 2.98Zm.052-4.976c-.907 0-1.503.855-1.503 2.047 0 1.167.596 2.022 1.477 2.022.882 0 1.478-.907 1.478-2.048.026-1.166-.57-2.021-1.452-2.021Zm12.213-.804-1.763 5.65h-1.167l-.726-2.462a21.206 21.206 0 0 1-.467-1.84h-.026c-.104.622-.26 1.244-.467 1.84l-.777 2.462h-1.167l-1.66-5.65h1.297l.648 2.696c.156.648.285 1.244.389 1.814h.026c.104-.467.233-1.063.467-1.814l.803-2.696h1.037l.778 2.644c.182.648.337 1.27.467 1.866h.026c.078-.57.207-1.192.389-1.866l.7-2.644h1.193Zm6.508 5.65h-1.245v-3.24c0-1.01-.389-1.503-1.14-1.503-.753 0-1.271.648-1.271 1.374v3.37h-1.27v-4.044c0-.492 0-1.037-.053-1.607h1.115l.052.881h.026c.337-.596 1.037-.984 1.79-.984 1.192 0 1.97.907 1.97 2.384l.026 3.37Zm3.474 0h-1.27V7.854h1.27v8.267Zm4.59.13c-1.66 0-2.723-1.244-2.723-2.903 0-1.736 1.089-2.98 2.826-2.98 1.634 0 2.723 1.166 2.723 2.902 0 1.737-1.141 2.98-2.827 2.98Zm.051-4.976c-.907 0-1.504.855-1.504 2.047 0 1.167.597 2.022 1.478 2.022.882 0 1.478-.907 1.478-2.048 0-1.166-.57-2.021-1.452-2.021Zm7.727 4.846-.104-.648h-.026c-.389.519-.933.778-1.66.778-1.01 0-1.736-.7-1.736-1.659 0-1.4 1.218-2.125 3.318-2.125v-.104c0-.751-.389-1.114-1.166-1.114-.57 0-1.037.13-1.478.415l-.26-.83c.519-.337 1.167-.492 1.945-.492 1.478 0 2.23.777 2.23 2.332v2.074c0 .57.026 1.01.078 1.347l-1.141.026Zm-.182-2.825c-1.4 0-2.1.337-2.1 1.14 0 .597.363.882.856.882.648 0 1.244-.493 1.244-1.14v-.882Zm7.338 2.825-.052-.907h-.026c-.363.674-.959 1.037-1.815 1.037-1.374 0-2.385-1.192-2.385-2.877 0-1.762 1.037-3.006 2.489-3.006.752 0 1.296.259 1.608.777h.025V7.854h1.271v6.738c0 .544.026 1.063.052 1.53h-1.167Zm-.181-3.317c0-.804-.519-1.478-1.323-1.478-.933 0-1.504.83-1.504 1.996 0 1.14.597 1.918 1.478 1.918.804 0 1.349-.7 1.349-1.503v-.933Zm9.256 3.447c-1.659 0-2.723-1.244-2.723-2.903 0-1.736 1.089-2.98 2.827-2.98 1.633 0 2.722 1.166 2.722 2.902 0 1.737-1.141 2.98-2.826 2.98Zm.052-4.976c-.908 0-1.478.855-1.478 2.047 0 1.167.596 2.022 1.478 2.022.881 0 1.478-.907 1.478-2.048-.026-1.166-.597-2.021-1.478-2.021Zm9.541 4.846h-1.27v-3.24c0-1.01-.389-1.503-1.141-1.503s-1.244.648-1.244 1.374v3.37h-1.271v-4.044c0-.492 0-1.037-.052-1.607h1.115l.052.881h.026c.337-.596 1.037-.984 1.789-.984 1.193 0 1.97.907 1.97 2.384v3.37h.026Zm8.453-4.717h-1.374v2.748c0 .7.233 1.036.726 1.036.233 0 .415-.026.57-.052l.026.96c-.233.103-.57.129-.985.129-.985 0-1.582-.544-1.582-1.97v-2.85h-.829v-.934h.829V9.435l1.245-.363v1.4h1.374v.932Zm6.664 4.717h-1.245v-3.213c0-1.011-.389-1.53-1.141-1.53-.648 0-1.27.441-1.27 1.348v3.421h-1.245V7.854h1.245v3.395h.026c.389-.622.959-.933 1.711-.933 1.193 0 1.919.933 1.919 2.41v3.395Zm6.819-2.514h-3.786c.026 1.063.726 1.685 1.789 1.685.571 0 1.063-.104 1.53-.26l.207.882c-.544.233-1.166.337-1.892.337-1.763 0-2.826-1.115-2.826-2.851s1.063-3.032 2.67-3.032c1.452 0 2.36 1.062 2.36 2.695 0 .155 0 .337-.052.544Zm-1.141-.907c0-.881-.441-1.503-1.245-1.503-.726 0-1.296.622-1.374 1.503h2.619Z" fill="#fff"/><defs><linearGradient id="cia" x1="118.823" y1="48.113" x2="118.823" y2="-644.442" gradientUnits="userSpaceOnUse"><stop stop-color="#1A1A1A" stop-opacity=".1"/><stop offset=".123" stop-color="#212121" stop-opacity=".151"/><stop offset=".308" stop-color="#353535" stop-opacity=".227"/><stop offset=".532" stop-color="#575757" stop-opacity=".318"/><stop offset=".783" stop-color="#858585" stop-opacity=".421"/><stop offset="1" stop-color="#B3B3B3" stop-opacity=".51"/></linearGradient></defs></symbol><symbol fill="none" viewBox="0 0 162 48" id="images--store-app--google-play" xmlns="http://www.w3.org/2000/svg"><g clip-path="url(#cja)"><path d="M156 47.991H6c-3.36 0-6-2.64-6-5.998V6.006C0 2.646 2.64.008 6 .008h150c3.36 0 6 2.639 6 5.998v35.987c0 3.359-2.64 5.998-6 5.998Z" fill="#424551"/><path d="M156 .967c2.76 0 5.04 2.28 5.04 5.039v35.987c0 2.76-2.28 5.038-5.04 5.038H6c-2.76 0-5.04-2.279-5.04-5.038V6.006C.96 3.246 3.24.967 6 .967h150Zm0-.96H6c-3.36 0-6 2.76-6 5.999v35.987c0 3.359 2.64 5.998 6 5.998h150c3.36 0 6-2.64 6-5.998V6.006c0-3.24-2.64-5.998-6-5.998Z" fill="#424551"/><path d="M56.88 12.244c0 .96-.24 1.8-.84 2.399-.72.72-1.56 1.08-2.64 1.08s-1.92-.36-2.64-1.08c-.72-.72-1.08-1.56-1.08-2.64 0-1.079.36-1.918 1.08-2.638.72-.72 1.56-1.08 2.64-1.08.48 0 .96.12 1.44.36s.84.48 1.08.84l-.6.6c-.48-.6-1.08-.84-1.92-.84-.72 0-1.44.24-1.92.84-.6.48-.84 1.2-.84 2.039 0 .84.24 1.56.84 2.04.6.479 1.2.839 1.92.839.84 0 1.44-.24 2.04-.84.36-.36.6-.84.6-1.44H53.4v-.96h3.48v.48Zm5.52-3h-3.24v2.28h3v.84h-3v2.279h3.24v.96h-4.2V8.405h4.2v.84Zm3.96 6.359h-.96V9.245h-2.04v-.84h5.04v.84h-2.04v6.358Zm5.52 0V8.405h.96v7.198h-.96Zm5.04 0h-.96V9.245h-2.04v-.84h4.92v.84H76.8v6.358h.12Zm11.4-.96c-.72.72-1.56 1.08-2.64 1.08s-1.92-.36-2.64-1.08c-.72-.72-1.08-1.56-1.08-2.64 0-1.079.36-1.918 1.08-2.638.72-.72 1.56-1.08 2.64-1.08s1.92.36 2.64 1.08c.72.72 1.08 1.56 1.08 2.639 0 1.08-.36 1.92-1.08 2.639Zm-4.56-.6c.48.48 1.2.84 1.92.84s1.44-.24 1.92-.84c.48-.48.84-1.2.84-2.04 0-.839-.24-1.559-.84-2.038-.48-.48-1.2-.84-1.92-.84s-1.44.24-1.92.84c-.48.48-.84 1.2-.84 2.039 0 .84.24 1.56.84 2.04Zm6.96 1.56V8.405h1.08l3.48 5.638V8.405h.96v7.198h-.96l-3.72-5.878v5.878h-.84ZM81.72 26.16c-2.88 0-5.16 2.159-5.16 5.158a5.12 5.12 0 0 0 5.16 5.158c2.88 0 5.16-2.16 5.16-5.158 0-3.12-2.28-5.159-5.16-5.159Zm0 8.157c-1.56 0-2.88-1.32-2.88-3.12 0-1.799 1.32-3.118 2.88-3.118 1.56 0 2.88 1.2 2.88 3.119 0 1.8-1.32 3.119-2.88 3.119ZM70.56 26.16c-2.88 0-5.16 2.159-5.16 5.158a5.12 5.12 0 0 0 5.16 5.158c2.88 0 5.16-2.16 5.16-5.158 0-3.12-2.28-5.159-5.16-5.159Zm0 8.157c-1.56 0-2.88-1.32-2.88-3.12 0-1.799 1.32-3.118 2.88-3.118 1.56 0 2.88 1.2 2.88 3.119 0 1.8-1.32 3.119-2.88 3.119Zm-13.32-6.598v2.16h5.16c-.12 1.199-.6 2.159-1.2 2.758-.72.72-1.92 1.56-3.96 1.56-3.24 0-5.64-2.52-5.64-5.758 0-3.24 2.52-5.758 5.64-5.758 1.68 0 3 .72 3.96 1.56l1.56-1.56c-1.32-1.2-3-2.16-5.4-2.16-4.32 0-8.04 3.6-8.04 7.918s3.72 7.917 8.04 7.917c2.4 0 4.08-.72 5.52-2.28 1.44-1.439 1.92-3.478 1.92-5.038 0-.48 0-.96-.12-1.319h-7.44Zm54.48 1.68c-.48-1.2-1.68-3.24-4.32-3.24-2.64 0-4.8 2.04-4.8 5.159 0 2.879 2.16 5.158 5.04 5.158 2.28 0 3.72-1.44 4.2-2.28l-1.68-1.199c-.6.84-1.32 1.44-2.52 1.44s-1.92-.48-2.52-1.56l6.84-2.879-.24-.6Zm-6.96 1.679c0-1.92 1.56-3 2.64-3 .84 0 1.68.48 1.92 1.08l-4.56 1.92Zm-5.64 4.918h2.28V21.001h-2.28v14.995Zm-3.6-8.757c-.6-.6-1.56-1.2-2.76-1.2-2.52 0-4.92 2.28-4.92 5.159s2.28 5.038 4.92 5.038c1.2 0 2.16-.6 2.64-1.2h.12v.72c0 1.92-1.08 3-2.76 3-1.32 0-2.28-.96-2.52-1.8l-1.92.84c.6 1.319 2.04 2.998 4.56 2.998 2.64 0 4.8-1.56 4.8-5.278V26.4h-2.16v.84Zm-2.64 7.078c-1.56 0-2.88-1.32-2.88-3.12 0-1.799 1.32-3.118 2.88-3.118 1.56 0 2.76 1.32 2.76 3.119 0 1.8-1.2 3.119-2.76 3.119ZM122.16 21h-5.4v14.995h2.28v-5.638h3.12c2.52 0 4.92-1.8 4.92-4.678 0-2.88-2.4-4.679-4.92-4.679Zm.12 7.198h-3.24V23.04h3.24c1.68 0 2.64 1.44 2.64 2.519-.12 1.32-1.08 2.639-2.64 2.639Zm13.8-2.16c-1.68 0-3.36.72-3.96 2.28l2.04.84c.48-.84 1.2-1.08 2.04-1.08 1.2 0 2.28.72 2.4 1.92v.12c-.36-.24-1.32-.6-2.28-.6-2.16 0-4.32 1.199-4.32 3.358 0 2.04 1.8 3.359 3.72 3.359 1.56 0 2.28-.72 2.88-1.44h.12v1.2h2.16v-5.758c-.24-2.639-2.28-4.198-4.8-4.198Zm-.24 8.278c-.72 0-1.8-.36-1.8-1.32 0-1.2 1.32-1.56 2.4-1.56.96 0 1.44.24 2.04.48-.24 1.44-1.44 2.4-2.64 2.4Zm12.6-7.918-2.52 6.478h-.12l-2.64-6.478h-2.4l3.96 9.117-2.28 5.038h2.28l6.12-14.155h-2.4Zm-20.16 9.597h2.28V21.001h-2.28v14.995Z" fill="#fff"/><path d="M12.48 9.006c-.36.36-.48.96-.48 1.68v26.51c0 .72.24 1.32.6 1.68l.12.12L27.6 24.12v-.24L12.48 9.006Z" fill="url(#cjb)"/><path d="m32.4 29.157-4.92-4.918v-.36l4.92-4.918.12.12 5.88 3.359c1.68.96 1.68 2.519 0 3.479l-6 3.238Z" fill="url(#cjc)"/><path d="M32.52 29.038 27.48 24l-15 14.995c.6.6 1.44.6 2.52.12l17.52-10.077Z" fill="url(#cjd)"/><path d="M32.52 18.962 15 9.006c-1.08-.6-1.92-.48-2.52.12L27.48 24l5.04-5.038Z" fill="url(#cje)"/><path opacity=".2" d="M32.4 28.918 15 38.755c-.96.6-1.8.48-2.4 0l-.12.12.12.12c.6.48 1.44.6 2.4 0l17.4-10.077Z" fill="#424551"/><path opacity=".2" d="M12.48 38.755c-.36-.36-.48-.96-.48-1.68v.12c0 .72.24 1.32.6 1.68v-.12h-.12ZM38.4 25.559l-6 3.36.12.12 5.88-3.36c.84-.48 1.2-1.08 1.2-1.679 0 .6-.48 1.08-1.2 1.56Z" fill="#424551"/><path opacity=".2" d="m15 9.125 23.4 13.316c.72.48 1.2.96 1.2 1.559 0-.6-.36-1.2-1.2-1.68L15 9.006c-1.68-.96-3-.24-3 1.68v.12c0-1.8 1.32-2.64 3-1.68Z" fill="#fff"/></g><defs><linearGradient id="cjb" x1="26.16" y1="10.457" x2="6.027" y2="30.596" gradientUnits="userSpaceOnUse"><stop stop-color="#00A0FF"/><stop offset=".007" stop-color="#00A1FF"/><stop offset=".26" stop-color="#00BEFF"/><stop offset=".512" stop-color="#00D2FF"/><stop offset=".76" stop-color="#00DFFF"/><stop offset="1" stop-color="#00E3FF"/></linearGradient><linearGradient id="cjc" x1="40.601" y1="24" x2="11.565" y2="24" gradientUnits="userSpaceOnUse"><stop stop-color="#FFE000"/><stop offset=".409" stop-color="#FFBD00"/><stop offset=".775" stop-color="orange"/><stop offset="1" stop-color="#FF9C00"/></linearGradient><linearGradient id="cjd" x1="29.793" y1="26.754" x2="2.493" y2="54.064" gradientUnits="userSpaceOnUse"><stop stop-color="#FF3A44"/><stop offset="1" stop-color="#C31162"/></linearGradient><linearGradient id="cje" x1="8.757" y1=".22" x2="20.948" y2="12.415" gradientUnits="userSpaceOnUse"><stop stop-color="#32A071"/><stop offset=".069" stop-color="#2DA771"/><stop offset=".476" stop-color="#15CF74"/><stop offset=".801" stop-color="#06E775"/><stop offset="1" stop-color="#00F076"/></linearGradient><clipPath id="cja"><path fill="#fff" d="M0 0h162v48H0z"/></clipPath></defs></symbol></svg>