<svg width="20" height="20" fill="none" xmlns="http://www.w3.org/2000/svg"><path fill-rule="evenodd" clip-rule="evenodd" d="M10 16.59c-3.833-2.184-5.971-4.353-7.005-6.236-1.058-1.926-.965-3.549-.378-4.7 1.206-2.368 4.638-3.125 6.728-.48L10 6l.654-.827c2.09-2.644 5.522-1.887 6.729.48.587 1.152.68 2.775-.379 4.702-1.034 1.882-3.171 4.051-7.004 6.234Zm0-13.168C7.057.627 2.72 1.782 1.131 4.897c-.871 1.709-.883 3.918.402 6.26 1.275 2.32 3.815 4.77 8.062 7.117l.403.223.403-.223c4.247-2.347 6.788-4.797 8.062-7.117 1.286-2.342 1.274-4.551.403-6.26-1.588-3.115-5.927-4.27-8.868-1.475Z" fill="#424551"/></svg>