<svg width="14" height="13" fill="none" xmlns="http://www.w3.org/2000/svg"><path fill-rule="evenodd" clip-rule="evenodd" d="M5.933 1.284c.405-.935 1.73-.935 2.136 0L9.295 4.11l3.067.292c1.014.097 1.424 1.358.66 2.032l-2.31 2.04.67 3.007c.222.994-.85 1.774-1.728 1.256L7.001 11.17l-2.654 1.567c-.877.518-1.95-.262-1.728-1.256l.67-3.008-2.31-2.04c-.763-.673-.354-1.934.66-2.03l3.068-.293 1.226-2.827Zm2.294 3.29L7 1.747 5.775 4.574a1.164 1.164 0 0 1-.958.696l-3.067.292 2.31 2.04c.317.28.457.712.365 1.125l-.67 3.008L6.41 10.17a1.164 1.164 0 0 1 1.183 0l2.654 1.566-.67-3.008a1.164 1.164 0 0 1 .366-1.125l2.31-2.04-3.068-.292a1.164 1.164 0 0 1-.957-.696Z" fill="#B3B7BC"/></svg>